<svg width="104" height="1944" viewBox="0 0 104 1944" fill="none" xmlns="http://www.w3.org/2000/svg">
<path d="M104 1174.95L104 1239.03L2.79753e-05 1239.03L3.07767e-05 1174.95L104 1174.95Z" fill="white"/>
<path d="M104 1057.45L104 1121.54L3.31112e-05 1121.54L3.59126e-05 1057.45L104 1057.45Z" fill="white"/>
<path d="M104 1292.44L104 1356.53L2.28395e-05 1356.53L2.56409e-05 1292.44L104 1292.44Z" fill="white"/>
<path d="M104 1409.93L104 1474.02L1.77037e-05 1474.02L2.0505e-05 1409.93L104 1409.93Z" fill="white"/>
<path d="M104 1527.43L104 1591.52L1.25678e-05 1591.52L1.53692e-05 1527.43L104 1527.43Z" fill="white"/>
<path d="M104 1644.92L104 1709.01L7.43195e-06 1709.01L1.02333e-05 1644.92L104 1644.92Z" fill="white"/>
<path d="M104 1762.42L104 1826.51L2.2961e-06 1826.51L5.09748e-06 1762.42L104 1762.42Z" fill="white"/>
<path d="M104 1879.91L104 1944L-2.83974e-06 1944L-3.83697e-08 1879.91L104 1879.91Z" fill="white"/>
<path d="M104 939.956L104 1004.04L3.8247e-05 1004.04L4.10484e-05 939.956L104 939.956Z" fill="white"/>
<path d="M104 822.462L104 886.549L4.33829e-05 886.549L4.61843e-05 822.462L104 822.462Z" fill="white"/>
<path d="M104 117.495L104 181.582L7.4198e-05 181.582L7.69994e-05 117.495L104 117.495Z" fill="white"/>
<path d="M104 234.989L104 299.077L6.90621e-05 299.077L7.18635e-05 234.989L104 234.989Z" fill="white"/>
<path d="M104 352.484L104 416.571L6.39263e-05 416.571L6.67277e-05 352.484L104 352.484Z" fill="white"/>
<path d="M104 469.978L104 534.066L5.87904e-05 534.066L6.15918e-05 469.978L104 469.978Z" fill="white"/>
<path d="M104 587.473L104 651.56L5.36546e-05 651.56L5.6456e-05 587.473L104 587.473Z" fill="white"/>
<path d="M104 0L104 64.0879L7.93338e-05 64.0879L8.21352e-05 -4.54598e-06L104 0Z" fill="white"/>
<path d="M104 704.967L104 769.055L4.85187e-05 769.055L5.13201e-05 704.967L104 704.967Z" fill="white"/>
</svg>
