<svg width="4976" height="419" viewBox="0 0 4976 419" fill="none" xmlns="http://www.w3.org/2000/svg">
<path d="M306.016 57.127V196.113H222.557V84.9243H83.4586V335.099H222.557V279.505H306.016V362.896H278.196V390.694H250.376V418.491H55.639V390.694H27.8194V362.896H-0.000244141V57.127H27.8194V29.3298H55.639V1.53259H250.376V29.3298H278.196V57.127H306.016Z" fill="white"/>
<path d="M689.331 183.798C689.331 188.947 685.148 193.163 679.958 193.163H672.079C671.182 193.163 670.286 193.275 669.427 193.536C661.884 195.775 659.719 197.901 657.478 205.476C657.217 206.334 657.105 207.229 657.105 208.125V280.398C657.105 285.547 652.922 289.763 647.732 289.763H639.853C638.956 289.763 638.06 289.875 637.201 290.136C629.658 292.375 627.493 294.539 625.252 302.076C624.991 302.934 624.879 303.829 624.879 304.725V344.798C624.879 349.947 620.696 354.163 615.506 354.163H607.627C606.731 354.163 605.834 354.275 604.975 354.536C597.432 356.775 595.267 358.939 593.026 366.476C592.765 367.334 592.653 368.229 592.653 369.125V376.998C592.653 382.147 588.47 386.363 583.28 386.363H575.401C574.505 386.363 573.608 386.475 572.75 386.736C565.206 388.975 563.041 391.139 560.8 398.676C560.539 399.534 560.427 400.429 560.427 401.325V409.198C560.427 414.347 556.244 418.563 551.054 418.563H440.896C435.743 418.563 431.523 414.384 431.523 409.198V401.325C431.523 400.429 431.411 399.534 431.15 398.676C428.909 391.139 426.743 388.975 419.2 386.736C418.341 386.475 417.445 386.363 416.549 386.363H408.67C403.517 386.363 399.297 382.184 399.297 376.998V369.125C399.297 368.229 399.185 367.334 398.924 366.476C396.683 358.939 394.517 356.775 386.974 354.536C386.115 354.275 385.219 354.163 384.323 354.163H376.406C371.253 354.163 367.034 349.984 367.034 344.798V234.728C367.034 229.579 371.216 225.363 376.406 225.363H384.323C385.219 225.363 386.115 225.251 386.974 224.99C394.517 222.751 396.683 220.587 398.924 213.05C399.185 212.192 399.297 211.296 399.297 210.401V138.128C399.297 132.979 403.479 128.763 408.67 128.763H416.549C417.445 128.763 418.341 128.651 419.2 128.39C426.743 126.151 428.909 123.987 431.15 116.45C431.411 115.592 431.523 114.696 431.523 113.801V73.728C431.523 68.579 435.705 64.3628 440.896 64.3628H448.775C449.671 64.3628 450.567 64.2509 451.426 63.9897C458.969 61.751 461.135 59.6242 463.375 52.0499C463.637 51.1918 463.749 50.2963 463.749 49.4008V41.528C463.749 36.379 467.931 32.1628 473.122 32.1628H481.001C481.897 32.1628 482.793 32.0509 483.652 31.7897C491.195 29.551 493.361 27.4242 495.601 19.8499C495.863 18.9918 495.975 18.0963 495.975 17.2008V9.36536C495.975 4.21634 500.157 0.00012207 505.348 0.00012207H615.506C620.659 0.00012207 624.879 4.17903 624.879 9.36536V17.2381C624.879 18.1336 624.991 19.0291 625.252 19.8873C627.493 27.4242 629.658 29.5883 637.201 31.827C638.06 32.0882 638.956 32.2001 639.853 32.2001H647.732C652.885 32.2001 657.105 36.379 657.105 41.5654V49.4381C657.105 50.3336 657.217 51.2291 657.478 52.0873C659.719 59.6242 661.847 61.7883 669.427 64.027C670.286 64.2882 671.182 64.4001 672.079 64.4001H679.958C685.111 64.4001 689.331 68.579 689.331 73.7654V183.835V183.798ZM624.879 225.363V202.528C624.879 197.379 629.061 193.163 634.251 193.163H642.131C643.027 193.163 643.923 193.051 644.782 192.79C652.325 190.551 654.491 188.387 656.731 180.85C656.993 179.992 657.105 179.096 657.105 178.201V79.3248C657.105 78.4293 656.993 77.5338 656.731 76.6757C654.491 69.1387 652.362 66.9746 644.782 64.7359C643.923 64.4747 643.027 64.3628 642.131 64.3628H634.251C629.098 64.3628 624.879 60.1839 624.879 54.9976V47.1248C624.879 46.2293 624.767 45.3338 624.505 44.4757C622.265 36.9387 620.099 34.7746 612.556 32.5359C611.697 32.2747 610.801 32.1628 609.905 32.1628H510.949C510.053 32.1628 509.156 32.2747 508.298 32.5359C500.755 34.7746 498.589 36.9014 496.348 44.4757C496.087 45.3338 495.975 46.2293 495.975 47.1248V54.9976C495.975 60.1466 491.793 64.3628 486.602 64.3628H478.723C477.827 64.3628 476.931 64.4747 476.072 64.7359C468.529 66.9746 466.363 69.1014 464.122 76.6757C463.861 77.5338 463.749 78.4293 463.749 79.3248V119.398C463.749 124.547 459.567 128.763 454.376 128.763H446.497C445.601 128.763 444.705 128.875 443.846 129.136C436.303 131.375 434.137 133.539 431.896 141.076C431.635 141.934 431.523 142.829 431.523 143.725V215.998C431.523 221.147 427.341 225.363 422.15 225.363H414.271C413.375 225.363 412.479 225.475 411.62 225.736C404.077 227.975 401.911 230.139 399.67 237.676C399.409 238.534 399.297 239.429 399.297 240.325V339.201C399.297 340.096 399.409 340.992 399.67 341.85C401.911 349.387 404.077 351.551 411.62 353.79C412.479 354.051 413.375 354.163 414.271 354.163H422.15C427.303 354.163 431.523 358.342 431.523 363.528V371.401C431.523 372.296 431.635 373.192 431.896 374.05C434.137 381.587 436.303 383.751 443.846 385.99C444.705 386.251 445.601 386.363 446.497 386.363H545.453C546.349 386.363 547.245 386.251 548.104 385.99C555.647 383.751 557.813 381.587 560.053 374.05C560.315 373.192 560.427 372.296 560.427 371.401V363.528C560.427 358.379 564.609 354.163 569.799 354.163H577.679C578.575 354.163 579.471 354.051 580.33 353.79C587.873 351.551 590.039 349.387 592.279 341.85C592.541 340.992 592.653 340.096 592.653 339.201V299.128C592.653 293.979 596.835 289.763 602.025 289.763H609.905C610.801 289.763 611.697 289.651 612.556 289.39C620.099 287.151 622.265 284.987 624.505 277.45C624.767 276.592 624.879 275.696 624.879 274.801V225.363V225.363Z" fill="white"/>
<path d="M1062.6 9.36536V22.8349C1062.6 27.9839 1058.41 32.2001 1053.22 32.2001H1045.34C1044.45 32.2001 1043.55 32.3121 1042.69 32.5732C1035.15 34.8119 1032.98 36.9387 1030.74 44.513C1030.48 45.3712 1030.37 46.2666 1030.37 47.1621V119.435C1030.37 124.584 1026.19 128.8 1021 128.8H1013.12C1012.22 128.8 1011.33 128.912 1010.47 129.173C1002.92 131.412 1000.76 133.576 998.518 141.113C998.256 141.971 998.144 142.867 998.144 143.762V216.035C998.144 221.184 993.962 225.4 988.772 225.4H980.855C979.959 225.4 979.063 225.512 978.204 225.773C970.661 228.012 968.495 230.176 966.255 237.713C965.993 238.571 965.881 239.467 965.881 240.362V280.435C965.881 285.584 961.699 289.8 956.508 289.8H948.629C947.733 289.8 946.837 289.912 945.978 290.173C938.435 292.412 936.269 294.576 934.029 302.113C933.767 302.971 933.655 303.867 933.655 304.762V371.438C933.655 372.334 933.767 373.229 934.029 374.087C936.269 381.624 938.435 383.788 945.978 386.027C946.837 386.288 947.733 386.4 948.629 386.4H950.944C951.841 386.4 952.737 386.288 953.596 386.027C961.139 383.788 963.305 381.624 965.545 374.087C965.807 373.229 965.919 372.334 965.919 371.438V363.565C965.919 358.416 970.101 354.2 975.291 354.2H988.809C993.962 354.2 998.182 358.379 998.182 363.565V377.035C998.182 382.184 993.999 386.4 988.809 386.4H980.893C979.996 386.4 979.1 386.512 978.241 386.773C970.698 389.012 968.532 391.176 966.292 398.713C966.03 399.571 965.919 400.467 965.919 401.362V409.235C965.919 414.384 961.736 418.6 956.546 418.6H943.065C937.912 418.6 933.693 414.421 933.693 409.235V401.362C933.693 400.467 933.581 399.571 933.319 398.713C931.079 391.176 928.913 389.012 921.37 386.773C920.511 386.512 919.615 386.4 918.719 386.4H910.839C905.686 386.4 901.467 382.221 901.467 377.035V304.762C901.467 303.867 901.355 302.971 901.093 302.113C898.853 294.576 896.687 292.412 889.144 290.173C888.285 289.912 887.389 289.8 886.493 289.8H878.613C873.46 289.8 869.241 285.621 869.241 280.435V240.362C869.241 239.467 869.129 238.571 868.867 237.713C866.627 230.176 864.461 228.012 856.918 225.773C856.059 225.512 855.163 225.4 854.267 225.4H846.388C841.234 225.4 837.015 221.221 837.015 216.035V143.762C837.015 142.867 836.903 141.971 836.641 141.113C834.401 133.576 832.235 131.412 824.692 129.173C823.833 128.912 822.937 128.8 822.041 128.8H819.726C818.829 128.8 817.933 128.912 817.074 129.173C809.531 131.412 807.365 133.576 805.125 141.113C804.863 141.971 804.751 142.867 804.751 143.762V216.035C804.751 221.184 800.569 225.4 795.379 225.4H787.462C786.566 225.4 785.67 225.512 784.811 225.773C777.268 228.012 775.102 230.176 772.862 237.713C772.6 238.571 772.488 239.467 772.488 240.362V280.435C772.488 285.584 768.306 289.8 763.115 289.8H755.236C754.34 289.8 753.444 289.912 752.585 290.173C745.042 292.412 742.876 294.576 740.636 302.113C740.374 302.971 740.262 303.867 740.262 304.762V377.035C740.262 382.184 736.08 386.4 730.889 386.4H723.01C722.114 386.4 721.218 386.512 720.359 386.773C712.816 389.012 710.65 391.176 708.41 398.713C708.148 399.571 708.036 400.467 708.036 401.362V409.235C708.036 414.384 703.854 418.6 698.664 418.6H685.183C680.03 418.6 675.81 414.421 675.81 409.235V395.765C675.81 390.616 679.993 386.4 685.183 386.4H693.062C693.958 386.4 694.855 386.288 695.713 386.027C703.257 383.788 705.422 381.624 707.663 374.087C707.924 373.229 708.036 372.334 708.036 371.438V299.165C708.036 294.016 712.219 289.8 717.409 289.8H725.288C726.184 289.8 727.081 289.688 727.939 289.427C735.482 287.188 737.648 285.024 739.889 277.487C740.15 276.629 740.262 275.734 740.262 274.838V234.765C740.262 229.616 744.444 225.4 749.635 225.4H757.514C758.41 225.4 759.307 225.288 760.165 225.027C767.708 222.788 769.874 220.624 772.115 213.087C772.376 212.229 772.488 211.334 772.488 210.438V138.165C772.488 133.016 776.67 128.8 781.861 128.8H789.777C790.674 128.8 791.57 128.688 792.429 128.427C799.972 126.188 802.138 124.024 804.378 116.487C804.639 115.629 804.751 114.734 804.751 113.838V47.1248C804.751 46.2293 804.639 45.3338 804.378 44.4757C802.138 36.9387 800.009 34.7746 792.429 32.5359C791.57 32.2748 790.674 32.1628 789.777 32.1628H787.462C786.566 32.1628 785.67 32.2748 784.811 32.5359C777.268 34.7746 775.102 36.9014 772.862 44.4757C772.6 45.3338 772.488 46.2293 772.488 47.1248V54.9976C772.488 60.1466 768.306 64.3628 763.115 64.3628H749.635C744.482 64.3628 740.262 60.1839 740.262 54.9976V41.5281C740.262 36.379 744.444 32.1628 749.635 32.1628H757.514C758.41 32.1628 759.307 32.0509 760.165 31.7897C767.708 29.551 769.874 27.4242 772.115 19.85C772.376 18.9918 772.488 18.0963 772.488 17.2008V9.36536C772.488 4.21635 776.67 0.00012207 781.861 0.00012207H795.379C800.532 0.00012207 804.751 4.17903 804.751 9.36536V17.2381C804.751 18.1336 804.863 19.0291 805.125 19.8873C807.365 27.4242 809.494 29.5883 817.074 31.827C817.933 32.0882 818.829 32.2001 819.726 32.2001H827.605C832.758 32.2001 836.977 36.379 836.977 41.5654V113.838C836.977 114.734 837.089 115.629 837.351 116.487C839.591 124.024 841.757 126.188 849.3 128.427C850.159 128.688 851.055 128.8 851.951 128.8H859.831C864.984 128.8 869.203 132.979 869.203 138.165V210.438C869.203 211.334 869.315 212.229 869.577 213.087C871.817 220.624 873.983 222.788 881.526 225.027C882.385 225.288 883.281 225.4 884.177 225.4H892.056C897.21 225.4 901.429 229.579 901.429 234.765V274.838C901.429 275.734 901.541 276.629 901.803 277.487C904.043 285.024 906.209 287.188 913.752 289.427C914.611 289.688 915.507 289.8 916.403 289.8H918.719C919.615 289.8 920.511 289.688 921.37 289.427C928.913 287.188 931.079 285.024 933.319 277.487C933.581 276.629 933.693 275.734 933.693 274.838V234.765C933.693 229.616 937.875 225.4 943.065 225.4H950.944C951.841 225.4 952.737 225.288 953.596 225.027C961.139 222.788 963.305 220.624 965.545 213.087C965.807 212.229 965.919 211.334 965.919 210.438V138.165C965.919 133.016 970.101 128.8 975.291 128.8H983.208C984.104 128.8 985 128.688 985.859 128.427C993.402 126.188 995.568 124.024 997.808 116.487C998.07 115.629 998.182 114.734 998.182 113.838V41.5654C998.182 36.4164 1002.36 32.2001 1007.55 32.2001H1015.43C1016.33 32.2001 1017.23 32.0882 1018.09 31.827C1025.63 29.5883 1027.79 27.4615 1030.03 19.8873C1030.3 19.0291 1030.41 18.1336 1030.41 17.2381V9.36536C1030.41 4.21635 1034.59 0.00012207 1039.78 0.00012207H1053.26C1058.41 0.00012207 1062.63 4.17903 1062.63 9.36536H1062.6Z" fill="white"/>
<path d="M1414.43 84.9243H1303.15V418.491H1219.7V84.9243H1108.42V1.53259H1414.43V84.9243V84.9243Z" fill="white"/>
<path d="M1776.09 112.721V251.708H1748.27V279.505H1720.45V307.302H1692.63V335.099H1720.45V362.896H1748.27V390.694H1776.09V418.491H1664.81V390.694H1636.99V362.896H1553.53V418.491H1470.07V1.53259H1664.81V29.3298H1692.63V57.127H1720.45V84.9243H1748.27V112.721H1776.09V112.721ZM1692.63 223.91V140.519H1664.81V112.721H1636.99V84.9243H1553.53V279.505H1636.99V251.708H1664.81V223.91H1692.63V223.91Z" fill="white"/>
<path d="M2131.58 183.798C2131.58 188.947 2127.4 193.163 2122.21 193.163H2114.33C2113.43 193.163 2112.53 193.275 2111.68 193.536C2104.13 195.775 2101.97 197.901 2099.73 205.476C2099.47 206.334 2099.35 207.229 2099.35 208.125V280.398C2099.35 285.547 2095.17 289.763 2089.98 289.763H2082.1C2081.21 289.763 2080.31 289.875 2079.45 290.136C2071.91 292.375 2069.74 294.539 2067.5 302.076C2067.24 302.934 2067.13 303.829 2067.13 304.725V344.798C2067.13 349.947 2062.94 354.163 2057.75 354.163H2049.88C2048.98 354.163 2048.08 354.275 2047.22 354.536C2039.68 356.775 2037.52 358.939 2035.27 366.476C2035.01 367.334 2034.9 368.229 2034.9 369.125V376.998C2034.9 382.147 2030.72 386.363 2025.53 386.363H2017.65C2016.75 386.363 2015.86 386.475 2015 386.736C2007.46 388.975 2005.29 391.139 2003.05 398.676C2002.79 399.534 2002.68 400.429 2002.68 401.325V409.198C2002.68 414.347 1998.49 418.563 1993.3 418.563H1883.14C1877.99 418.563 1873.77 414.384 1873.77 409.198V401.325C1873.77 400.429 1873.66 399.534 1873.4 398.676C1871.16 391.139 1868.99 388.975 1861.45 386.736C1860.59 386.475 1859.69 386.363 1858.8 386.363H1850.92C1845.77 386.363 1841.55 382.184 1841.55 376.998V369.125C1841.55 368.229 1841.43 367.334 1841.17 366.476C1838.93 358.939 1836.77 356.775 1829.22 354.536C1828.36 354.275 1827.47 354.163 1826.57 354.163H1818.66C1813.5 354.163 1809.28 349.984 1809.28 344.798V234.728C1809.28 229.579 1813.46 225.363 1818.66 225.363H1826.57C1827.47 225.363 1828.36 225.251 1829.22 224.99C1836.77 222.751 1838.93 220.587 1841.17 213.05C1841.43 212.192 1841.55 211.296 1841.55 210.401V138.128C1841.55 132.979 1845.73 128.763 1850.92 128.763H1858.8C1859.69 128.763 1860.59 128.651 1861.45 128.39C1868.99 126.151 1871.16 123.987 1873.4 116.45C1873.66 115.592 1873.77 114.696 1873.77 113.801V73.728C1873.77 68.579 1877.95 64.3628 1883.14 64.3628H1891.02C1891.92 64.3628 1892.82 64.2509 1893.67 63.9897C1901.22 61.751 1903.38 59.6242 1905.62 52.0499C1905.89 51.1918 1906 50.2963 1906 49.4008V41.528C1906 36.379 1910.18 32.1628 1915.37 32.1628H1923.25C1924.15 32.1628 1925.04 32.0509 1925.9 31.7897C1933.44 29.551 1935.61 27.4242 1937.85 19.8499C1938.11 18.9918 1938.22 18.0963 1938.22 17.2008V9.36536C1938.22 4.21634 1942.41 0.00012207 1947.6 0.00012207H2057.75C2062.91 0.00012207 2067.13 4.17903 2067.13 9.36536V17.2381C2067.13 18.1336 2067.24 19.0291 2067.5 19.8873C2069.74 27.4242 2071.91 29.5883 2079.45 31.827C2080.31 32.0882 2081.21 32.2001 2082.1 32.2001H2089.98C2095.13 32.2001 2099.35 36.379 2099.35 41.5654V49.4381C2099.35 50.3336 2099.47 51.2291 2099.73 52.0873C2101.97 59.6242 2104.1 61.7883 2111.68 64.027C2112.53 64.2882 2113.43 64.4001 2114.33 64.4001H2122.21C2127.36 64.4001 2131.58 68.579 2131.58 73.7654V183.835V183.798ZM2067.13 225.363V202.528C2067.13 197.379 2071.31 193.163 2076.5 193.163H2084.38C2085.28 193.163 2086.17 193.051 2087.03 192.79C2094.57 190.551 2096.74 188.387 2098.98 180.85C2099.24 179.992 2099.35 179.096 2099.35 178.201V79.3248C2099.35 78.4293 2099.24 77.5338 2098.98 76.6757C2096.74 69.1387 2094.61 66.9746 2087.03 64.7359C2086.17 64.4747 2085.28 64.3628 2084.38 64.3628H2076.5C2071.35 64.3628 2067.13 60.1839 2067.13 54.9976V47.1248C2067.13 46.2293 2067.02 45.3338 2066.75 44.4757C2064.51 36.9387 2062.35 34.7746 2054.8 32.5359C2053.95 32.2747 2053.05 32.1628 2052.15 32.1628H1953.2C1952.3 32.1628 1951.4 32.2747 1950.55 32.5359C1943 34.7746 1940.84 36.9014 1938.6 44.4757C1938.34 45.3338 1938.22 46.2293 1938.22 47.1248V54.9976C1938.22 60.1466 1934.04 64.3628 1928.85 64.3628H1920.97C1920.08 64.3628 1919.18 64.4747 1918.32 64.7359C1910.78 66.9746 1908.61 69.1014 1906.37 76.6757C1906.11 77.5338 1906 78.4293 1906 79.3248V119.398C1906 124.547 1901.82 128.763 1896.62 128.763H1888.75C1887.85 128.763 1886.95 128.875 1886.09 129.136C1878.55 131.375 1876.39 133.539 1874.14 141.076C1873.88 141.934 1873.77 142.829 1873.77 143.725V215.998C1873.77 221.147 1869.59 225.363 1864.4 225.363H1856.52C1855.62 225.363 1854.73 225.475 1853.87 225.736C1846.33 227.975 1844.16 230.139 1841.92 237.676C1841.66 238.534 1841.55 239.429 1841.55 240.325V339.201C1841.55 340.096 1841.66 340.992 1841.92 341.85C1844.16 349.387 1846.33 351.551 1853.87 353.79C1854.73 354.051 1855.62 354.163 1856.52 354.163H1864.4C1869.55 354.163 1873.77 358.342 1873.77 363.528V371.401C1873.77 372.296 1873.88 373.192 1874.14 374.05C1876.39 381.587 1878.55 383.751 1886.09 385.99C1886.95 386.251 1887.85 386.363 1888.75 386.363H1987.7C1988.6 386.363 1989.49 386.251 1990.35 385.99C1997.9 383.751 2000.06 381.587 2002.3 374.05C2002.56 373.192 2002.68 372.296 2002.68 371.401V363.528C2002.68 358.379 2006.86 354.163 2012.05 354.163H2019.93C2020.82 354.163 2021.72 354.051 2022.58 353.79C2030.12 351.551 2032.29 349.387 2034.53 341.85C2034.79 340.992 2034.9 340.096 2034.9 339.201V299.128C2034.9 293.979 2039.08 289.763 2044.27 289.763H2052.15C2053.05 289.763 2053.95 289.651 2054.8 289.39C2062.35 287.151 2064.51 284.987 2066.75 277.45C2067.02 276.592 2067.13 275.696 2067.13 274.801V225.363V225.363Z" fill="white"/>
<path d="M2452.5 418.491H2257.76V390.693H2229.94V362.896H2202.12V1.53223H2285.58V335.099H2452.5V418.491Z" fill="white"/>
<path d="M2829.02 57.127V196.113H2745.56V84.9243H2606.46V335.099H2745.56V279.505H2829.02V362.896H2801.2V390.694H2773.38V418.491H2578.64V390.694H2550.82V362.896H2523V57.127H2550.82V29.3298H2578.64V1.53259H2773.38V29.3298H2801.2V57.127H2829.02Z" fill="white"/>
<path d="M3212.33 183.798C3212.33 188.947 3208.15 193.163 3202.96 193.163H3195.08C3194.18 193.163 3193.29 193.275 3192.43 193.536C3184.88 195.775 3182.72 197.901 3180.48 205.476C3180.22 206.334 3180.1 207.229 3180.1 208.125V280.398C3180.1 285.547 3175.92 289.763 3170.73 289.763H3162.85C3161.96 289.763 3161.06 289.875 3160.2 290.136C3152.66 292.375 3150.49 294.539 3148.25 302.076C3147.99 302.934 3147.88 303.829 3147.88 304.725V344.798C3147.88 349.947 3143.7 354.163 3138.51 354.163H3130.63C3129.73 354.163 3128.83 354.275 3127.98 354.536C3120.43 356.775 3118.27 358.939 3116.03 366.476C3115.76 367.334 3115.65 368.229 3115.65 369.125V376.998C3115.65 382.147 3111.47 386.363 3106.28 386.363H3098.4C3097.5 386.363 3096.61 386.475 3095.75 386.736C3088.21 388.975 3086.04 391.139 3083.8 398.676C3083.54 399.534 3083.43 400.429 3083.43 401.325V409.198C3083.43 414.347 3079.24 418.563 3074.05 418.563H2963.9C2958.74 418.563 2954.52 414.384 2954.52 409.198V401.325C2954.52 400.429 2954.41 399.534 2954.15 398.676C2951.91 391.139 2949.74 388.975 2942.2 386.736C2941.34 386.475 2940.45 386.363 2939.55 386.363H2931.67C2926.52 386.363 2922.3 382.184 2922.3 376.998V369.125C2922.3 368.229 2922.18 367.334 2921.92 366.476C2919.68 358.939 2917.52 356.775 2909.97 354.536C2909.12 354.275 2908.22 354.163 2907.32 354.163H2899.41C2894.25 354.163 2890.03 349.984 2890.03 344.798V234.728C2890.03 229.579 2894.22 225.363 2899.41 225.363H2907.32C2908.22 225.363 2909.12 225.251 2909.97 224.99C2917.52 222.751 2919.68 220.587 2921.92 213.05C2922.18 212.192 2922.3 211.296 2922.3 210.401V138.128C2922.3 132.979 2926.48 128.763 2931.67 128.763H2939.55C2940.45 128.763 2941.34 128.651 2942.2 128.39C2949.74 126.151 2951.91 123.987 2954.15 116.45C2954.41 115.592 2954.52 114.696 2954.52 113.801V73.728C2954.52 68.579 2958.71 64.3628 2963.9 64.3628H2971.77C2972.67 64.3628 2973.57 64.2509 2974.43 63.9897C2981.97 61.751 2984.13 59.6242 2986.38 52.0499C2986.64 51.1918 2986.75 50.2963 2986.75 49.4008V41.528C2986.75 36.379 2990.93 32.1628 2996.12 32.1628H3004C3004.9 32.1628 3005.79 32.0509 3006.65 31.7897C3014.2 29.551 3016.36 27.4242 3018.6 19.8499C3018.86 18.9918 3018.97 18.0963 3018.97 17.2008V9.36536C3018.97 4.21634 3023.16 0.00012207 3028.35 0.00012207H3138.51C3143.66 0.00012207 3147.88 4.17903 3147.88 9.36536V17.2381C3147.88 18.1336 3147.99 19.0291 3148.25 19.8873C3150.49 27.4242 3152.66 29.5883 3160.2 31.827C3161.06 32.0882 3161.96 32.2001 3162.85 32.2001H3170.73C3175.88 32.2001 3180.1 36.379 3180.1 41.5654V49.4381C3180.1 50.3336 3180.22 51.2291 3180.48 52.0873C3182.72 59.6242 3184.85 61.7883 3192.43 64.027C3193.29 64.2882 3194.18 64.4001 3195.08 64.4001H3202.96C3208.11 64.4001 3212.33 68.579 3212.33 73.7654V183.835V183.798ZM3147.88 225.363V202.528C3147.88 197.379 3152.06 193.163 3157.25 193.163H3165.13C3166.03 193.163 3166.92 193.051 3167.78 192.79C3175.32 190.551 3177.49 188.387 3179.73 180.85C3179.99 179.992 3180.1 179.096 3180.1 178.201V79.3248C3180.1 78.4293 3179.99 77.5338 3179.73 76.6757C3177.49 69.1387 3175.36 66.9746 3167.78 64.7359C3166.92 64.4747 3166.03 64.3628 3165.13 64.3628H3157.25C3152.1 64.3628 3147.88 60.1839 3147.88 54.9976V47.1248C3147.88 46.2293 3147.77 45.3338 3147.51 44.4757C3145.26 36.9387 3143.1 34.7746 3135.56 32.5359C3134.7 32.2747 3133.8 32.1628 3132.9 32.1628H3033.95C3033.05 32.1628 3032.16 32.2747 3031.3 32.5359C3023.75 34.7746 3021.59 36.9014 3019.35 44.4757C3019.09 45.3338 3018.97 46.2293 3018.97 47.1248V54.9976C3018.97 60.1466 3014.79 64.3628 3009.6 64.3628H3001.72C3000.83 64.3628 2999.93 64.4747 2999.07 64.7359C2991.53 66.9746 2989.36 69.1014 2987.12 76.6757C2986.86 77.5338 2986.75 78.4293 2986.75 79.3248V119.398C2986.75 124.547 2982.57 128.763 2977.38 128.763H2969.5C2968.6 128.763 2967.7 128.875 2966.85 129.136C2959.3 131.375 2957.14 133.539 2954.9 141.076C2954.63 141.934 2954.52 142.829 2954.52 143.725V215.998C2954.52 221.147 2950.34 225.363 2945.15 225.363H2937.27C2936.37 225.363 2935.48 225.475 2934.62 225.736C2927.08 227.975 2924.91 230.139 2922.67 237.676C2922.41 238.534 2922.3 239.429 2922.3 240.325V339.201C2922.3 340.096 2922.41 340.992 2922.67 341.85C2924.91 349.387 2927.08 351.551 2934.62 353.79C2935.48 354.051 2936.37 354.163 2937.27 354.163H2945.15C2950.3 354.163 2954.52 358.342 2954.52 363.528V371.401C2954.52 372.296 2954.63 373.192 2954.9 374.05C2957.14 381.587 2959.3 383.751 2966.85 385.99C2967.7 386.251 2968.6 386.363 2969.5 386.363H3068.45C3069.35 386.363 3070.25 386.251 3071.1 385.99C3078.65 383.751 3080.81 381.587 3083.05 374.05C3083.31 373.192 3083.43 372.296 3083.43 371.401V363.528C3083.43 358.379 3087.61 354.163 3092.8 354.163H3100.68C3101.57 354.163 3102.47 354.051 3103.33 353.79C3110.87 351.551 3113.04 349.387 3115.28 341.85C3115.54 340.992 3115.65 340.096 3115.65 339.201V299.128C3115.65 293.979 3119.83 289.763 3125.03 289.763H3132.9C3133.8 289.763 3134.7 289.651 3135.56 289.39C3143.1 287.151 3145.26 284.987 3147.51 277.45C3147.77 276.592 3147.88 275.696 3147.88 274.801V225.363V225.363Z" fill="white"/>
<path d="M3585.6 9.36536V22.8349C3585.6 27.9839 3581.41 32.2001 3576.22 32.2001H3568.34C3567.45 32.2001 3566.55 32.3121 3565.69 32.5732C3558.15 34.8119 3555.98 36.9387 3553.74 44.513C3553.48 45.3712 3553.37 46.2666 3553.37 47.1621V119.435C3553.37 124.584 3549.19 128.8 3544 128.8H3536.12C3535.22 128.8 3534.33 128.912 3533.47 129.173C3525.92 131.412 3523.76 133.576 3521.52 141.113C3521.26 141.971 3521.14 142.867 3521.14 143.762V216.035C3521.14 221.184 3516.96 225.4 3511.77 225.4H3503.86C3502.96 225.4 3502.06 225.512 3501.2 225.773C3493.66 228.012 3491.49 230.176 3489.25 237.713C3488.99 238.571 3488.88 239.467 3488.88 240.362V280.435C3488.88 285.584 3484.7 289.8 3479.51 289.8H3471.63C3470.73 289.8 3469.84 289.912 3468.98 290.173C3461.43 292.412 3459.27 294.576 3457.03 302.113C3456.77 302.971 3456.65 303.867 3456.65 304.762V371.438C3456.65 372.334 3456.77 373.229 3457.03 374.087C3459.27 381.624 3461.43 383.788 3468.98 386.027C3469.84 386.288 3470.73 386.4 3471.63 386.4H3473.94C3474.84 386.4 3475.74 386.288 3476.6 386.027C3484.14 383.788 3486.3 381.624 3488.54 374.087C3488.81 373.229 3488.92 372.334 3488.92 371.438V363.565C3488.92 358.416 3493.1 354.2 3498.29 354.2H3511.81C3516.96 354.2 3521.18 358.379 3521.18 363.565V377.035C3521.18 382.184 3517 386.4 3511.81 386.4H3503.89C3503 386.4 3502.1 386.512 3501.24 386.773C3493.7 389.012 3491.53 391.176 3489.29 398.713C3489.03 399.571 3488.92 400.467 3488.92 401.362V409.235C3488.92 414.384 3484.74 418.6 3479.55 418.6H3466.07C3460.91 418.6 3456.69 414.421 3456.69 409.235V401.362C3456.69 400.467 3456.58 399.571 3456.32 398.713C3454.08 391.176 3451.91 389.012 3444.37 386.773C3443.51 386.512 3442.61 386.4 3441.72 386.4H3433.84C3428.69 386.4 3424.47 382.221 3424.47 377.035V304.762C3424.47 303.867 3424.35 302.971 3424.09 302.113C3421.85 294.576 3419.69 292.412 3412.14 290.173C3411.28 289.912 3410.39 289.8 3409.49 289.8H3401.61C3396.46 289.8 3392.24 285.621 3392.24 280.435V240.362C3392.24 239.467 3392.13 238.571 3391.87 237.713C3389.63 230.176 3387.46 228.012 3379.92 225.773C3379.06 225.512 3378.16 225.4 3377.27 225.4H3369.39C3364.23 225.4 3360.01 221.221 3360.01 216.035V143.762C3360.01 142.867 3359.9 141.971 3359.64 141.113C3357.4 133.576 3355.23 131.412 3347.69 129.173C3346.83 128.912 3345.94 128.8 3345.04 128.8H3342.73C3341.83 128.8 3340.93 128.912 3340.07 129.173C3332.53 131.412 3330.37 133.576 3328.12 141.113C3327.86 141.971 3327.75 142.867 3327.75 143.762V216.035C3327.75 221.184 3323.57 225.4 3318.38 225.4H3310.46C3309.57 225.4 3308.67 225.512 3307.81 225.773C3300.27 228.012 3298.1 230.176 3295.86 237.713C3295.6 238.571 3295.49 239.467 3295.49 240.362V280.435C3295.49 285.584 3291.31 289.8 3286.12 289.8H3278.24C3277.34 289.8 3276.44 289.912 3275.58 290.173C3268.04 292.412 3265.88 294.576 3263.64 302.113C3263.37 302.971 3263.26 303.867 3263.26 304.762V377.035C3263.26 382.184 3259.08 386.4 3253.89 386.4H3246.01C3245.11 386.4 3244.22 386.512 3243.36 386.773C3235.82 389.012 3233.65 391.176 3231.41 398.713C3231.15 399.571 3231.04 400.467 3231.04 401.362V409.235C3231.04 414.384 3226.85 418.6 3221.66 418.6H3208.18C3203.03 418.6 3198.81 414.421 3198.81 409.235V395.765C3198.81 390.616 3202.99 386.4 3208.18 386.4H3216.06C3216.96 386.4 3217.85 386.288 3218.71 386.027C3226.26 383.788 3228.42 381.624 3230.66 374.087C3230.92 373.229 3231.04 372.334 3231.04 371.438V299.165C3231.04 294.016 3235.22 289.8 3240.41 289.8H3248.29C3249.18 289.8 3250.08 289.688 3250.94 289.427C3258.48 287.188 3260.65 285.024 3262.89 277.487C3263.15 276.629 3263.26 275.734 3263.26 274.838V234.765C3263.26 229.616 3267.44 225.4 3272.63 225.4H3280.51C3281.41 225.4 3282.31 225.288 3283.17 225.027C3290.71 222.788 3292.87 220.624 3295.11 213.087C3295.38 212.229 3295.49 211.334 3295.49 210.438V138.165C3295.49 133.016 3299.67 128.8 3304.86 128.8H3312.78C3313.67 128.8 3314.57 128.688 3315.43 128.427C3322.97 126.188 3325.14 124.024 3327.38 116.487C3327.64 115.629 3327.75 114.734 3327.75 113.838V47.1248C3327.75 46.2293 3327.64 45.3338 3327.38 44.4757C3325.14 36.9387 3323.01 34.7746 3315.43 32.5359C3314.57 32.2748 3313.67 32.1628 3312.78 32.1628H3310.46C3309.57 32.1628 3308.67 32.2748 3307.81 32.5359C3300.27 34.7746 3298.1 36.9014 3295.86 44.4757C3295.6 45.3338 3295.49 46.2293 3295.49 47.1248V54.9976C3295.49 60.1466 3291.31 64.3628 3286.12 64.3628H3272.63C3267.48 64.3628 3263.26 60.1839 3263.26 54.9976V41.5281C3263.26 36.379 3267.44 32.1628 3272.63 32.1628H3280.51C3281.41 32.1628 3282.31 32.0509 3283.17 31.7897C3290.71 29.551 3292.87 27.4242 3295.11 19.85C3295.38 18.9918 3295.49 18.0963 3295.49 17.2008V9.36536C3295.49 4.21635 3299.67 0.00012207 3304.86 0.00012207H3318.38C3323.53 0.00012207 3327.75 4.17903 3327.75 9.36536V17.2381C3327.75 18.1336 3327.86 19.0291 3328.12 19.8873C3330.37 27.4242 3332.49 29.5883 3340.07 31.827C3340.93 32.0882 3341.83 32.2001 3342.73 32.2001H3350.6C3355.76 32.2001 3359.98 36.379 3359.98 41.5654V113.838C3359.98 114.734 3360.09 115.629 3360.35 116.487C3362.59 124.024 3364.76 126.188 3372.3 128.427C3373.16 128.688 3374.05 128.8 3374.95 128.8H3382.83C3387.98 128.8 3392.2 132.979 3392.2 138.165V210.438C3392.2 211.334 3392.32 212.229 3392.58 213.087C3394.82 220.624 3396.98 222.788 3404.53 225.027C3405.38 225.288 3406.28 225.4 3407.18 225.4H3415.06C3420.21 225.4 3424.43 229.579 3424.43 234.765V274.838C3424.43 275.734 3424.54 276.629 3424.8 277.487C3427.04 285.024 3429.21 287.188 3436.75 289.427C3437.61 289.688 3438.51 289.8 3439.4 289.8H3441.72C3442.61 289.8 3443.51 289.688 3444.37 289.427C3451.91 287.188 3454.08 285.024 3456.32 277.487C3456.58 276.629 3456.69 275.734 3456.69 274.838V234.765C3456.69 229.616 3460.87 225.4 3466.07 225.4H3473.94C3474.84 225.4 3475.74 225.288 3476.6 225.027C3484.14 222.788 3486.3 220.624 3488.54 213.087C3488.81 212.229 3488.92 211.334 3488.92 210.438V138.165C3488.92 133.016 3493.1 128.8 3498.29 128.8H3506.21C3507.1 128.8 3508 128.688 3508.86 128.427C3516.4 126.188 3518.57 124.024 3520.81 116.487C3521.07 115.629 3521.18 114.734 3521.18 113.838V41.5654C3521.18 36.4164 3525.36 32.2001 3530.55 32.2001H3538.43C3539.33 32.2001 3540.23 32.0882 3541.08 31.827C3548.63 29.5883 3550.79 27.4615 3553.03 19.8873C3553.3 19.0291 3553.41 18.1336 3553.41 17.2381V9.36536C3553.41 4.21635 3557.59 0.00012207 3562.78 0.00012207H3576.26C3581.41 0.00012207 3585.63 4.17903 3585.63 9.36536H3585.6Z" fill="white"/>
<path d="M3937.43 84.9243H3826.15V418.491H3742.7V84.9243H3631.42V1.53259H3937.43V84.9243V84.9243Z" fill="white"/>
<path d="M4299.09 112.721V251.708H4271.27V279.505H4243.45V307.302H4215.63V335.099H4243.45V362.896H4271.27V390.694H4299.09V418.491H4187.81V390.694H4159.99V362.896H4076.53V418.491H3993.07V1.53259H4187.81V29.3298H4215.63V57.127H4243.45V84.9243H4271.27V112.721H4299.09V112.721ZM4215.63 223.91V140.519H4187.81V112.721H4159.99V84.9243H4076.53V279.505H4159.99V251.708H4187.81V223.91H4215.63V223.91Z" fill="white"/>
<path d="M4654.58 183.798C4654.58 188.947 4650.4 193.163 4645.21 193.163H4637.33C4636.43 193.163 4635.53 193.275 4634.68 193.536C4627.13 195.775 4624.97 197.901 4622.73 205.476C4622.47 206.334 4622.35 207.229 4622.35 208.125V280.398C4622.35 285.547 4618.17 289.763 4612.98 289.763H4605.1C4604.21 289.763 4603.31 289.875 4602.45 290.136C4594.91 292.375 4592.74 294.539 4590.5 302.076C4590.24 302.934 4590.13 303.829 4590.13 304.725V344.798C4590.13 349.947 4585.94 354.163 4580.75 354.163H4572.88C4571.98 354.163 4571.08 354.275 4570.22 354.536C4562.68 356.775 4560.52 358.939 4558.27 366.476C4558.01 367.334 4557.9 368.229 4557.9 369.125V376.998C4557.9 382.147 4553.72 386.363 4548.53 386.363H4540.65C4539.75 386.363 4538.86 386.475 4538 386.736C4530.46 388.975 4528.29 391.139 4526.05 398.676C4525.79 399.534 4525.68 400.429 4525.68 401.325V409.198C4525.68 414.347 4521.49 418.563 4516.3 418.563H4406.14C4400.99 418.563 4396.77 414.384 4396.77 409.198V401.325C4396.77 400.429 4396.66 399.534 4396.4 398.676C4394.16 391.139 4391.99 388.975 4384.45 386.736C4383.59 386.475 4382.69 386.363 4381.8 386.363H4373.92C4368.77 386.363 4364.55 382.184 4364.55 376.998V369.125C4364.55 368.229 4364.43 367.334 4364.17 366.476C4361.93 358.939 4359.77 356.775 4352.22 354.536C4351.36 354.275 4350.47 354.163 4349.57 354.163H4341.66C4336.5 354.163 4332.28 349.984 4332.28 344.798V234.728C4332.28 229.579 4336.46 225.363 4341.66 225.363H4349.57C4350.47 225.363 4351.36 225.251 4352.22 224.99C4359.77 222.751 4361.93 220.587 4364.17 213.05C4364.43 212.192 4364.55 211.296 4364.55 210.401V138.128C4364.55 132.979 4368.73 128.763 4373.92 128.763H4381.8C4382.69 128.763 4383.59 128.651 4384.45 128.39C4391.99 126.151 4394.16 123.987 4396.4 116.45C4396.66 115.592 4396.77 114.696 4396.77 113.801V73.728C4396.77 68.579 4400.95 64.3628 4406.14 64.3628H4414.02C4414.92 64.3628 4415.82 64.2509 4416.67 63.9897C4424.22 61.751 4426.38 59.6242 4428.62 52.0499C4428.89 51.1918 4429 50.2963 4429 49.4008V41.528C4429 36.379 4433.18 32.1628 4438.37 32.1628H4446.25C4447.15 32.1628 4448.04 32.0509 4448.9 31.7897C4456.44 29.551 4458.61 27.4242 4460.85 19.8499C4461.11 18.9918 4461.22 18.0963 4461.22 17.2008V9.36536C4461.22 4.21634 4465.41 0.00012207 4470.6 0.00012207H4580.75C4585.91 0.00012207 4590.13 4.17903 4590.13 9.36536V17.2381C4590.13 18.1336 4590.24 19.0291 4590.5 19.8873C4592.74 27.4242 4594.91 29.5883 4602.45 31.827C4603.31 32.0882 4604.21 32.2001 4605.1 32.2001H4612.98C4618.13 32.2001 4622.35 36.379 4622.35 41.5654V49.4381C4622.35 50.3336 4622.47 51.2291 4622.73 52.0873C4624.97 59.6242 4627.1 61.7883 4634.68 64.027C4635.53 64.2882 4636.43 64.4001 4637.33 64.4001H4645.21C4650.36 64.4001 4654.58 68.579 4654.58 73.7654V183.835V183.798ZM4590.13 225.363V202.528C4590.13 197.379 4594.31 193.163 4599.5 193.163H4607.38C4608.28 193.163 4609.17 193.051 4610.03 192.79C4617.57 190.551 4619.74 188.387 4621.98 180.85C4622.24 179.992 4622.35 179.096 4622.35 178.201V79.3248C4622.35 78.4293 4622.24 77.5338 4621.98 76.6757C4619.74 69.1387 4617.61 66.9746 4610.03 64.7359C4609.17 64.4747 4608.28 64.3628 4607.38 64.3628H4599.5C4594.35 64.3628 4590.13 60.1839 4590.13 54.9976V47.1248C4590.13 46.2293 4590.02 45.3338 4589.75 44.4757C4587.51 36.9387 4585.35 34.7746 4577.8 32.5359C4576.95 32.2747 4576.05 32.1628 4575.15 32.1628H4476.2C4475.3 32.1628 4474.4 32.2747 4473.55 32.5359C4466 34.7746 4463.84 36.9014 4461.6 44.4757C4461.34 45.3338 4461.22 46.2293 4461.22 47.1248V54.9976C4461.22 60.1466 4457.04 64.3628 4451.85 64.3628H4443.97C4443.08 64.3628 4442.18 64.4747 4441.32 64.7359C4433.78 66.9746 4431.61 69.1014 4429.37 76.6757C4429.11 77.5338 4429 78.4293 4429 79.3248V119.398C4429 124.547 4424.82 128.763 4419.62 128.763H4411.75C4410.85 128.763 4409.95 128.875 4409.09 129.136C4401.55 131.375 4399.39 133.539 4397.14 141.076C4396.88 141.934 4396.77 142.829 4396.77 143.725V215.998C4396.77 221.147 4392.59 225.363 4387.4 225.363H4379.52C4378.62 225.363 4377.73 225.475 4376.87 225.736C4369.33 227.975 4367.16 230.139 4364.92 237.676C4364.66 238.534 4364.55 239.429 4364.55 240.325V339.201C4364.55 340.096 4364.66 340.992 4364.92 341.85C4367.16 349.387 4369.33 351.551 4376.87 353.79C4377.73 354.051 4378.62 354.163 4379.52 354.163H4387.4C4392.55 354.163 4396.77 358.342 4396.77 363.528V371.401C4396.77 372.296 4396.88 373.192 4397.14 374.05C4399.39 381.587 4401.55 383.751 4409.09 385.99C4409.95 386.251 4410.85 386.363 4411.75 386.363H4510.7C4511.6 386.363 4512.49 386.251 4513.35 385.99C4520.9 383.751 4523.06 381.587 4525.3 374.05C4525.56 373.192 4525.68 372.296 4525.68 371.401V363.528C4525.68 358.379 4529.86 354.163 4535.05 354.163H4542.93C4543.82 354.163 4544.72 354.051 4545.58 353.79C4553.12 351.551 4555.29 349.387 4557.53 341.85C4557.79 340.992 4557.9 340.096 4557.9 339.201V299.128C4557.9 293.979 4562.08 289.763 4567.27 289.763H4575.15C4576.05 289.763 4576.95 289.651 4577.8 289.39C4585.35 287.151 4587.51 284.987 4589.75 277.45C4590.02 276.592 4590.13 275.696 4590.13 274.801V225.363V225.363Z" fill="white"/>
<path d="M4975.5 418.491H4780.76V390.693H4752.94V362.896H4725.12V1.53223H4808.58V335.099H4975.5V418.491Z" fill="white"/>
</svg>
