<svg width="96" height="46" viewBox="0 0 96 46" fill="none" xmlns="http://www.w3.org/2000/svg">
<rect width="96" height="46" fill="#FF4B00"/>
<g clip-path="url(#clip0_11_15)">
<path d="M26.9615 13.5479V22.1805H21.7902V15.2744H13.1713V30.8132H21.7902V27.3602H26.9615V32.5398H25.2377V34.2663H23.514V35.9928H11.4475V34.2663H9.72377V32.5398H8V13.5479H9.72377V11.8213H11.4475V10.0948H23.514V11.8213H25.2377V13.5479H26.9615Z" fill="white"/>
<path d="M48.422 15.2744H41.5268V35.9928H36.3556V15.2744H29.4604V10.0948H48.422V15.2744Z" fill="white"/>
<path d="M70.8316 17.0009V25.6336H69.1079V27.3602H67.3841V29.0867H65.6604V30.8132H67.3841V32.5398H69.1079V34.2663H70.8316V35.9928H63.9366V34.2663H62.2128V32.5398H57.0415V35.9928H51.8701V10.0948H63.9366V11.8213H65.6604V13.5479H67.3841V15.2744H69.1079V17.0009H70.8316ZM65.6604 23.9071V18.7275H63.9366V17.0009H62.2128V15.2744H57.0415V27.3602H62.2128V25.6336H63.9366V23.9071H65.6604Z" fill="white"/>
<path d="M90.9515 35.9928H78.8851V34.2663H77.1612V32.5398H75.4375V10.0948H80.6088V30.8132H90.9515V35.9928Z" fill="white"/>
</g>
<defs>
<clipPath id="clip0_11_15">
<rect width="83" height="26" fill="white" transform="translate(8 10)"/>
</clipPath>
</defs>
</svg>
