<svg width="40" height="717" viewBox="0 0 40 717" fill="none" xmlns="http://www.w3.org/2000/svg">
<mask id="mask0_61_352" style="mask-type:alpha" maskUnits="userSpaceOnUse" x="0" y="0" width="40" height="717">
<rect y="0.600098" width="39.5636" height="715.636" fill="#FF4B00"/>
</mask>
<g mask="url(#mask0_61_352)">
<rect width="4.01014" height="575.459" transform="matrix(0.71955 -0.694441 0.71955 0.694441 -155.854 178.808)" fill="#FF4B00"/>
<rect width="4.01014" height="575.459" transform="matrix(0.71955 -0.694441 0.71955 0.694441 -149.398 161.201)" fill="#FF4B00"/>
<rect width="4.01014" height="575.459" transform="matrix(0.71955 -0.694441 0.71955 0.694441 -142.941 143.593)" fill="#FF4B00"/>
<rect width="4.01014" height="575.459" transform="matrix(0.71955 -0.694441 0.71955 0.694441 -136.483 125.986)" fill="#FF4B00"/>
<rect width="4.01014" height="575.459" transform="matrix(0.71955 -0.694441 0.71955 0.694441 -130.026 108.379)" fill="#FF4B00"/>
<rect width="4.01014" height="575.459" transform="matrix(0.71955 -0.694441 0.71955 0.694441 -123.568 90.7715)" fill="#FF4B00"/>
<rect width="4.01014" height="575.459" transform="matrix(0.71955 -0.694441 0.71955 0.694441 -117.111 73.1648)" fill="#FF4B00"/>
<rect width="4.01014" height="575.459" transform="matrix(0.71955 -0.694441 0.71955 0.694441 -110.653 55.5574)" fill="#FF4B00"/>
<rect width="4.01014" height="575.459" transform="matrix(0.71955 -0.694441 0.71955 0.694441 -104.196 37.9512)" fill="#FF4B00"/>
<rect width="4.01014" height="575.459" transform="matrix(0.71955 -0.694441 0.71955 0.694441 -97.7386 20.3438)" fill="#FF4B00"/>
<rect width="4.01014" height="575.459" transform="matrix(0.71955 -0.694441 0.71955 0.694441 -91.2814 2.73657)" fill="#FF4B00"/>
<rect width="4.01014" height="575.459" transform="matrix(0.71955 -0.694441 0.71955 0.694441 -84.8237 -14.8711)" fill="#FF4B00"/>
<rect width="4.01014" height="575.459" transform="matrix(0.71955 -0.694441 0.71955 0.694441 -78.3669 -32.4775)" fill="#FF4B00"/>
<rect width="4.01014" height="575.459" transform="matrix(0.71955 -0.694441 0.71955 0.694441 -71.9091 -50.0854)" fill="#FF4B00"/>
<rect width="4.01014" height="575.459" transform="matrix(0.71955 -0.694441 0.71955 0.694441 -65.4519 -67.6924)" fill="#FF4B00"/>
<rect width="4.01014" height="575.459" transform="matrix(0.71955 -0.694441 0.71955 0.694441 -58.9941 -85.3003)" fill="#FF4B00"/>
<rect width="4.01014" height="575.459" transform="matrix(0.71955 -0.694441 0.71955 0.694441 -52.5374 -102.906)" fill="#FF4B00"/>
<rect width="4.01014" height="575.459" transform="matrix(0.71955 -0.694441 0.71955 0.694441 -46.0797 -120.513)" fill="#FF4B00"/>
<rect width="4.01014" height="575.459" transform="matrix(0.71955 -0.694441 0.71955 0.694441 -39.6223 -138.122)" fill="#FF4B00"/>
<rect width="4.01014" height="575.459" transform="matrix(0.71955 -0.694441 0.71955 0.694441 -33.1647 -155.728)" fill="#FF4B00"/>
<rect width="4.01014" height="575.459" transform="matrix(0.71955 -0.694441 0.71955 0.694441 -26.7069 -173.335)" fill="#FF4B00"/>
<rect width="4.01014" height="575.459" transform="matrix(0.71955 -0.694441 0.71955 0.694441 -20.2498 -190.943)" fill="#FF4B00"/>
<rect width="4.01014" height="575.459" transform="matrix(0.71955 -0.694441 0.71955 0.694441 -296.844 568.185)" fill="#FF4B00"/>
<rect width="4.01014" height="575.459" transform="matrix(0.71955 -0.694441 0.71955 0.694441 -290.387 550.577)" fill="#FF4B00"/>
<rect width="4.01014" height="575.459" transform="matrix(0.71955 -0.694441 0.71955 0.694441 -283.93 532.97)" fill="#FF4B00"/>
<rect width="4.01014" height="575.459" transform="matrix(0.71955 -0.694441 0.71955 0.694441 -277.473 515.363)" fill="#FF4B00"/>
<rect width="4.01014" height="575.459" transform="matrix(0.71955 -0.694441 0.71955 0.694441 -271.016 497.756)" fill="#FF4B00"/>
<rect width="4.01014" height="575.459" transform="matrix(0.71955 -0.694441 0.71955 0.694441 -264.558 480.148)" fill="#FF4B00"/>
<rect width="4.01014" height="575.459" transform="matrix(0.71955 -0.694441 0.71955 0.694441 -258.101 462.543)" fill="#FF4B00"/>
<rect width="4.01014" height="575.459" transform="matrix(0.71955 -0.694441 0.71955 0.694441 -251.643 444.935)" fill="#FF4B00"/>
<rect width="4.01014" height="575.459" transform="matrix(0.71955 -0.694441 0.71955 0.694441 -245.186 427.328)" fill="#FF4B00"/>
<rect width="4.01014" height="575.459" transform="matrix(0.71955 -0.694441 0.71955 0.694441 -238.728 409.721)" fill="#FF4B00"/>
<rect width="4.01014" height="575.459" transform="matrix(0.71955 -0.694441 0.71955 0.694441 -232.271 392.114)" fill="#FF4B00"/>
<rect width="4.01014" height="575.459" transform="matrix(0.71955 -0.694441 0.71955 0.694441 -225.814 374.506)" fill="#FF4B00"/>
<rect width="4.01014" height="575.459" transform="matrix(0.71955 -0.694441 0.71955 0.694441 -219.356 356.9)" fill="#FF4B00"/>
<rect width="4.01014" height="575.459" transform="matrix(0.71955 -0.694441 0.71955 0.694441 -212.899 339.292)" fill="#FF4B00"/>
<rect width="4.01014" height="575.459" transform="matrix(0.71955 -0.694441 0.71955 0.694441 -206.442 321.685)" fill="#FF4B00"/>
<rect width="4.01014" height="575.459" transform="matrix(0.71955 -0.694441 0.71955 0.694441 -199.984 304.077)" fill="#FF4B00"/>
<rect width="4.01014" height="575.459" transform="matrix(0.71955 -0.694441 0.71955 0.694441 -193.527 286.47)" fill="#FF4B00"/>
<rect width="4.01014" height="575.459" transform="matrix(0.71955 -0.694441 0.71955 0.694441 -187.069 268.863)" fill="#FF4B00"/>
<rect width="4.01014" height="575.459" transform="matrix(0.71955 -0.694441 0.71955 0.694441 -180.612 251.256)" fill="#FF4B00"/>
<rect width="4.01014" height="575.459" transform="matrix(0.71955 -0.694441 0.71955 0.694441 -174.154 233.649)" fill="#FF4B00"/>
<rect width="4.01014" height="575.459" transform="matrix(0.71955 -0.694441 0.71955 0.694441 -167.697 216.042)" fill="#FF4B00"/>
<rect width="4.01014" height="575.459" transform="matrix(0.71955 -0.694441 0.71955 0.694441 -161.24 198.435)" fill="#FF4B00"/>
</g>
</svg>
