<svg width="41" height="720" viewBox="0 0 41 720" fill="none" xmlns="http://www.w3.org/2000/svg">
<mask id="mask0_61_401" style="mask-type:alpha" maskUnits="userSpaceOnUse" x="0" y="0" width="41" height="720">
<rect width="40.7273" height="719.127" transform="matrix(-1 0 0 1 40.7637 0.436279)" fill="white"/>
</mask>
<g mask="url(#mask0_61_401)">
<rect width="4.01014" height="575.459" transform="matrix(-0.71955 -0.694441 -0.71955 0.694441 196.084 178.965)" fill="white"/>
<rect width="4.01014" height="575.459" transform="matrix(-0.71955 -0.694441 -0.71955 0.694441 189.628 161.357)" fill="white"/>
<rect width="4.01014" height="575.459" transform="matrix(-0.71955 -0.694441 -0.71955 0.694441 183.171 143.75)" fill="white"/>
<rect width="4.01014" height="575.459" transform="matrix(-0.71955 -0.694441 -0.71955 0.694441 176.714 126.143)" fill="white"/>
<rect width="4.01014" height="575.459" transform="matrix(-0.71955 -0.694441 -0.71955 0.694441 170.256 108.535)" fill="white"/>
<rect width="4.01014" height="575.459" transform="matrix(-0.71955 -0.694441 -0.71955 0.694441 163.799 90.9282)" fill="white"/>
<rect width="4.01014" height="575.459" transform="matrix(-0.71955 -0.694441 -0.71955 0.694441 157.341 73.3215)" fill="white"/>
<rect width="4.01014" height="575.459" transform="matrix(-0.71955 -0.694441 -0.71955 0.694441 150.884 55.7139)" fill="white"/>
<rect width="4.01014" height="575.459" transform="matrix(-0.71955 -0.694441 -0.71955 0.694441 144.426 38.1077)" fill="white"/>
<rect width="4.01014" height="575.459" transform="matrix(-0.71955 -0.694441 -0.71955 0.694441 137.969 20.5002)" fill="white"/>
<rect width="4.01014" height="575.459" transform="matrix(-0.71955 -0.694441 -0.71955 0.694441 131.511 2.89307)" fill="white"/>
<rect width="4.01014" height="575.459" transform="matrix(-0.71955 -0.694441 -0.71955 0.694441 125.054 -14.7146)" fill="white"/>
<rect width="4.01014" height="575.459" transform="matrix(-0.71955 -0.694441 -0.71955 0.694441 118.597 -32.321)" fill="white"/>
<rect width="4.01014" height="575.459" transform="matrix(-0.71955 -0.694441 -0.71955 0.694441 112.139 -49.9285)" fill="white"/>
<rect width="4.01014" height="575.459" transform="matrix(-0.71955 -0.694441 -0.71955 0.694441 105.682 -67.5354)" fill="white"/>
<rect width="4.01014" height="575.459" transform="matrix(-0.71955 -0.694441 -0.71955 0.694441 99.224 -85.1433)" fill="white"/>
<rect width="4.01014" height="575.459" transform="matrix(-0.71955 -0.694441 -0.71955 0.694441 92.7672 -102.75)" fill="white"/>
<rect width="4.01014" height="575.459" transform="matrix(-0.71955 -0.694441 -0.71955 0.694441 86.3094 -120.357)" fill="white"/>
<rect width="4.01014" height="575.459" transform="matrix(-0.71955 -0.694441 -0.71955 0.694441 79.8523 -137.965)" fill="white"/>
<rect width="4.01014" height="575.459" transform="matrix(-0.71955 -0.694441 -0.71955 0.694441 73.3944 -155.571)" fill="white"/>
<rect width="4.01014" height="575.459" transform="matrix(-0.71955 -0.694441 -0.71955 0.694441 66.9376 -173.178)" fill="white"/>
<rect width="4.01014" height="575.459" transform="matrix(-0.71955 -0.694441 -0.71955 0.694441 60.48 -190.785)" fill="white"/>
<rect width="4.01014" height="575.459" transform="matrix(-0.71955 -0.694441 -0.71955 0.694441 337.077 568.341)" fill="white"/>
<rect width="4.01014" height="575.459" transform="matrix(-0.71955 -0.694441 -0.71955 0.694441 330.62 550.733)" fill="white"/>
<rect width="4.01014" height="575.459" transform="matrix(-0.71955 -0.694441 -0.71955 0.694441 324.163 533.126)" fill="white"/>
<rect width="4.01014" height="575.459" transform="matrix(-0.71955 -0.694441 -0.71955 0.694441 317.705 515.519)" fill="white"/>
<rect width="4.01014" height="575.459" transform="matrix(-0.71955 -0.694441 -0.71955 0.694441 311.248 497.912)" fill="white"/>
<rect width="4.01014" height="575.459" transform="matrix(-0.71955 -0.694441 -0.71955 0.694441 304.79 480.305)" fill="white"/>
<rect width="4.01014" height="575.459" transform="matrix(-0.71955 -0.694441 -0.71955 0.694441 298.333 462.698)" fill="white"/>
<rect width="4.01014" height="575.459" transform="matrix(-0.71955 -0.694441 -0.71955 0.694441 291.875 445.09)" fill="white"/>
<rect width="4.01014" height="575.459" transform="matrix(-0.71955 -0.694441 -0.71955 0.694441 285.419 427.484)" fill="white"/>
<rect width="4.01014" height="575.459" transform="matrix(-0.71955 -0.694441 -0.71955 0.694441 278.961 409.877)" fill="white"/>
<rect width="4.01014" height="575.459" transform="matrix(-0.71955 -0.694441 -0.71955 0.694441 272.504 392.27)" fill="white"/>
<rect width="4.01014" height="575.459" transform="matrix(-0.71955 -0.694441 -0.71955 0.694441 266.046 374.662)" fill="white"/>
<rect width="4.01014" height="575.459" transform="matrix(-0.71955 -0.694441 -0.71955 0.694441 259.589 357.055)" fill="white"/>
<rect width="4.01014" height="575.459" transform="matrix(-0.71955 -0.694441 -0.71955 0.694441 253.131 339.448)" fill="white"/>
<rect width="4.01014" height="575.459" transform="matrix(-0.71955 -0.694441 -0.71955 0.694441 246.675 321.841)" fill="white"/>
<rect width="4.01014" height="575.459" transform="matrix(-0.71955 -0.694441 -0.71955 0.694441 240.217 304.233)" fill="white"/>
<rect width="4.01014" height="575.459" transform="matrix(-0.71955 -0.694441 -0.71955 0.694441 233.76 286.627)" fill="white"/>
<rect width="4.01014" height="575.459" transform="matrix(-0.71955 -0.694441 -0.71955 0.694441 227.302 269.019)" fill="white"/>
<rect width="4.01014" height="575.459" transform="matrix(-0.71955 -0.694441 -0.71955 0.694441 220.845 251.412)" fill="white"/>
<rect width="4.01014" height="575.459" transform="matrix(-0.71955 -0.694441 -0.71955 0.694441 214.387 233.805)" fill="white"/>
<rect width="4.01014" height="575.459" transform="matrix(-0.71955 -0.694441 -0.71955 0.694441 207.929 216.198)" fill="white"/>
<rect width="4.01014" height="575.459" transform="matrix(-0.71955 -0.694441 -0.71955 0.694441 201.472 198.591)" fill="white"/>
</g>
</svg>
