<svg width="40" height="717" viewBox="0 0 40 717" fill="none" xmlns="http://www.w3.org/2000/svg">
<mask id="mask0_61_450" style="mask-type:alpha" maskUnits="userSpaceOnUse" x="0" y="0" width="40" height="717">
<rect width="39.5636" height="715.636" transform="matrix(-1 0 0 1 39.8 0.600098)" fill="white"/>
</mask>
<g mask="url(#mask0_61_450)">
<rect width="4.01014" height="575.459" transform="matrix(-0.71955 -0.694441 -0.71955 0.694441 195.687 178.808)" fill="white"/>
<rect width="4.01014" height="575.459" transform="matrix(-0.71955 -0.694441 -0.71955 0.694441 189.23 161.2)" fill="white"/>
<rect width="4.01014" height="575.459" transform="matrix(-0.71955 -0.694441 -0.71955 0.694441 182.772 143.594)" fill="white"/>
<rect width="4.01014" height="575.459" transform="matrix(-0.71955 -0.694441 -0.71955 0.694441 176.316 125.987)" fill="white"/>
<rect width="4.01014" height="575.459" transform="matrix(-0.71955 -0.694441 -0.71955 0.694441 169.858 108.379)" fill="white"/>
<rect width="4.01014" height="575.459" transform="matrix(-0.71955 -0.694441 -0.71955 0.694441 163.4 90.7717)" fill="white"/>
<rect width="4.01014" height="575.459" transform="matrix(-0.71955 -0.694441 -0.71955 0.694441 156.943 73.1653)" fill="white"/>
<rect width="4.01014" height="575.459" transform="matrix(-0.71955 -0.694441 -0.71955 0.694441 150.485 55.5576)" fill="white"/>
<rect width="4.01014" height="575.459" transform="matrix(-0.71955 -0.694441 -0.71955 0.694441 144.028 37.9517)" fill="white"/>
<rect width="4.01014" height="575.459" transform="matrix(-0.71955 -0.694441 -0.71955 0.694441 137.57 20.344)" fill="white"/>
<rect width="4.01014" height="575.459" transform="matrix(-0.71955 -0.694441 -0.71955 0.694441 131.114 2.73682)" fill="white"/>
<rect width="4.01014" height="575.459" transform="matrix(-0.71955 -0.694441 -0.71955 0.694441 124.656 -14.8706)" fill="white"/>
<rect width="4.01014" height="575.459" transform="matrix(-0.71955 -0.694441 -0.71955 0.694441 118.198 -32.4773)" fill="white"/>
<rect width="4.01014" height="575.459" transform="matrix(-0.71955 -0.694441 -0.71955 0.694441 111.741 -50.0847)" fill="white"/>
<rect width="4.01014" height="575.459" transform="matrix(-0.71955 -0.694441 -0.71955 0.694441 105.284 -67.6919)" fill="white"/>
<rect width="4.01014" height="575.459" transform="matrix(-0.71955 -0.694441 -0.71955 0.694441 98.8263 -85.2996)" fill="white"/>
<rect width="4.01014" height="575.459" transform="matrix(-0.71955 -0.694441 -0.71955 0.694441 92.3689 -102.906)" fill="white"/>
<rect width="4.01014" height="575.459" transform="matrix(-0.71955 -0.694441 -0.71955 0.694441 85.9113 -120.513)" fill="white"/>
<rect width="4.01014" height="575.459" transform="matrix(-0.71955 -0.694441 -0.71955 0.694441 79.4545 -138.121)" fill="white"/>
<rect width="4.01014" height="575.459" transform="matrix(-0.71955 -0.694441 -0.71955 0.694441 72.9967 -155.727)" fill="white"/>
<rect width="4.01014" height="575.459" transform="matrix(-0.71955 -0.694441 -0.71955 0.694441 66.5391 -173.335)" fill="white"/>
<rect width="4.01014" height="575.459" transform="matrix(-0.71955 -0.694441 -0.71955 0.694441 60.0817 -190.942)" fill="white"/>
<rect width="4.01014" height="575.459" transform="matrix(-0.71955 -0.694441 -0.71955 0.694441 336.678 568.184)" fill="white"/>
<rect width="4.01014" height="575.459" transform="matrix(-0.71955 -0.694441 -0.71955 0.694441 330.221 550.577)" fill="white"/>
<rect width="4.01014" height="575.459" transform="matrix(-0.71955 -0.694441 -0.71955 0.694441 323.764 532.97)" fill="white"/>
<rect width="4.01014" height="575.459" transform="matrix(-0.71955 -0.694441 -0.71955 0.694441 317.306 515.363)" fill="white"/>
<rect width="4.01014" height="575.459" transform="matrix(-0.71955 -0.694441 -0.71955 0.694441 310.849 497.755)" fill="white"/>
<rect width="4.01014" height="575.459" transform="matrix(-0.71955 -0.694441 -0.71955 0.694441 304.391 480.148)" fill="white"/>
<rect width="4.01014" height="575.459" transform="matrix(-0.71955 -0.694441 -0.71955 0.694441 297.934 462.542)" fill="white"/>
<rect width="4.01014" height="575.459" transform="matrix(-0.71955 -0.694441 -0.71955 0.694441 291.477 444.934)" fill="white"/>
<rect width="4.01014" height="575.459" transform="matrix(-0.71955 -0.694441 -0.71955 0.694441 285.02 427.328)" fill="white"/>
<rect width="4.01014" height="575.459" transform="matrix(-0.71955 -0.694441 -0.71955 0.694441 278.562 409.72)" fill="white"/>
<rect width="4.01014" height="575.459" transform="matrix(-0.71955 -0.694441 -0.71955 0.694441 272.105 392.113)" fill="white"/>
<rect width="4.01014" height="575.459" transform="matrix(-0.71955 -0.694441 -0.71955 0.694441 265.647 374.506)" fill="white"/>
<rect width="4.01014" height="575.459" transform="matrix(-0.71955 -0.694441 -0.71955 0.694441 259.19 356.899)" fill="white"/>
<rect width="4.01014" height="575.459" transform="matrix(-0.71955 -0.694441 -0.71955 0.694441 252.732 339.292)" fill="white"/>
<rect width="4.01014" height="575.459" transform="matrix(-0.71955 -0.694441 -0.71955 0.694441 246.275 321.684)" fill="white"/>
<rect width="4.01014" height="575.459" transform="matrix(-0.71955 -0.694441 -0.71955 0.694441 239.818 304.077)" fill="white"/>
<rect width="4.01014" height="575.459" transform="matrix(-0.71955 -0.694441 -0.71955 0.694441 233.36 286.47)" fill="white"/>
<rect width="4.01014" height="575.459" transform="matrix(-0.71955 -0.694441 -0.71955 0.694441 226.903 268.863)" fill="white"/>
<rect width="4.01014" height="575.459" transform="matrix(-0.71955 -0.694441 -0.71955 0.694441 220.446 251.255)" fill="white"/>
<rect width="4.01014" height="575.459" transform="matrix(-0.71955 -0.694441 -0.71955 0.694441 213.988 233.649)" fill="white"/>
<rect width="4.01014" height="575.459" transform="matrix(-0.71955 -0.694441 -0.71955 0.694441 207.531 216.042)" fill="white"/>
<rect width="4.01014" height="575.459" transform="matrix(-0.71955 -0.694441 -0.71955 0.694441 201.073 198.434)" fill="white"/>
</g>
</svg>
