<svg width="41" height="719" viewBox="0 0 41 719" fill="none" xmlns="http://www.w3.org/2000/svg">
<mask id="mask0_61_499" style="mask-type:alpha" maskUnits="userSpaceOnUse" x="0" y="0" width="41" height="719">
<rect x="0.272705" y="0.600098" width="40.7273" height="717.964" fill="white"/>
</mask>
<g mask="url(#mask0_61_499)">
<rect width="4.01014" height="575.459" transform="matrix(0.71955 -0.694441 0.71955 0.694441 -155.052 178.807)" fill="white"/>
<rect width="4.01014" height="575.459" transform="matrix(0.71955 -0.694441 0.71955 0.694441 -148.595 161.2)" fill="white"/>
<rect width="4.01014" height="575.459" transform="matrix(0.71955 -0.694441 0.71955 0.694441 -142.138 143.593)" fill="white"/>
<rect width="4.01014" height="575.459" transform="matrix(0.71955 -0.694441 0.71955 0.694441 -135.68 125.986)" fill="white"/>
<rect width="4.01014" height="575.459" transform="matrix(0.71955 -0.694441 0.71955 0.694441 -129.223 108.379)" fill="white"/>
<rect width="4.01014" height="575.459" transform="matrix(0.71955 -0.694441 0.71955 0.694441 -122.766 90.771)" fill="white"/>
<rect width="4.01014" height="575.459" transform="matrix(0.71955 -0.694441 0.71955 0.694441 -116.308 73.1648)" fill="white"/>
<rect width="4.01014" height="575.459" transform="matrix(0.71955 -0.694441 0.71955 0.694441 -109.851 55.5569)" fill="white"/>
<rect width="4.01014" height="575.459" transform="matrix(0.71955 -0.694441 0.71955 0.694441 -103.394 37.9509)" fill="white"/>
<rect width="4.01014" height="575.459" transform="matrix(0.71955 -0.694441 0.71955 0.694441 -96.9363 20.3433)" fill="white"/>
<rect width="4.01014" height="575.459" transform="matrix(0.71955 -0.694441 0.71955 0.694441 -90.479 2.73608)" fill="white"/>
<rect width="4.01014" height="575.459" transform="matrix(0.71955 -0.694441 0.71955 0.694441 -84.0211 -14.8711)" fill="white"/>
<rect width="4.01014" height="575.459" transform="matrix(0.71955 -0.694441 0.71955 0.694441 -77.5643 -32.478)" fill="white"/>
<rect width="4.01014" height="575.459" transform="matrix(0.71955 -0.694441 0.71955 0.694441 -71.1067 -50.0854)" fill="white"/>
<rect width="4.01014" height="575.459" transform="matrix(0.71955 -0.694441 0.71955 0.694441 -64.6499 -67.6926)" fill="white"/>
<rect width="4.01014" height="575.459" transform="matrix(0.71955 -0.694441 0.71955 0.694441 -58.1918 -85.3003)" fill="white"/>
<rect width="4.01014" height="575.459" transform="matrix(0.71955 -0.694441 0.71955 0.694441 -51.735 -102.906)" fill="white"/>
<rect width="4.01014" height="575.459" transform="matrix(0.71955 -0.694441 0.71955 0.694441 -45.2771 -120.514)" fill="white"/>
<rect width="4.01014" height="575.459" transform="matrix(0.71955 -0.694441 0.71955 0.694441 -38.8199 -138.122)" fill="white"/>
<rect width="4.01014" height="575.459" transform="matrix(0.71955 -0.694441 0.71955 0.694441 -32.3622 -155.728)" fill="white"/>
<rect width="4.01014" height="575.459" transform="matrix(0.71955 -0.694441 0.71955 0.694441 -25.9045 -173.335)" fill="white"/>
<rect width="4.01014" height="575.459" transform="matrix(0.71955 -0.694441 0.71955 0.694441 -19.4471 -190.943)" fill="white"/>
<rect width="4.01014" height="575.459" transform="matrix(0.71955 -0.694441 0.71955 0.694441 -296.043 568.184)" fill="white"/>
<rect width="4.01014" height="575.459" transform="matrix(0.71955 -0.694441 0.71955 0.694441 -289.586 550.576)" fill="white"/>
<rect width="4.01014" height="575.459" transform="matrix(0.71955 -0.694441 0.71955 0.694441 -283.129 532.969)" fill="white"/>
<rect width="4.01014" height="575.459" transform="matrix(0.71955 -0.694441 0.71955 0.694441 -276.671 515.362)" fill="white"/>
<rect width="4.01014" height="575.459" transform="matrix(0.71955 -0.694441 0.71955 0.694441 -270.214 497.755)" fill="white"/>
<rect width="4.01014" height="575.459" transform="matrix(0.71955 -0.694441 0.71955 0.694441 -263.756 480.147)" fill="white"/>
<rect width="4.01014" height="575.459" transform="matrix(0.71955 -0.694441 0.71955 0.694441 -257.299 462.541)" fill="white"/>
<rect width="4.01014" height="575.459" transform="matrix(0.71955 -0.694441 0.71955 0.694441 -250.841 444.933)" fill="white"/>
<rect width="4.01014" height="575.459" transform="matrix(0.71955 -0.694441 0.71955 0.694441 -244.384 427.327)" fill="white"/>
<rect width="4.01014" height="575.459" transform="matrix(0.71955 -0.694441 0.71955 0.694441 -237.926 409.72)" fill="white"/>
<rect width="4.01014" height="575.459" transform="matrix(0.71955 -0.694441 0.71955 0.694441 -231.47 392.113)" fill="white"/>
<rect width="4.01014" height="575.459" transform="matrix(0.71955 -0.694441 0.71955 0.694441 -225.012 374.505)" fill="white"/>
<rect width="4.01014" height="575.459" transform="matrix(0.71955 -0.694441 0.71955 0.694441 -218.555 356.898)" fill="white"/>
<rect width="4.01014" height="575.459" transform="matrix(0.71955 -0.694441 0.71955 0.694441 -212.097 339.291)" fill="white"/>
<rect width="4.01014" height="575.459" transform="matrix(0.71955 -0.694441 0.71955 0.694441 -205.64 321.684)" fill="white"/>
<rect width="4.01014" height="575.459" transform="matrix(0.71955 -0.694441 0.71955 0.694441 -199.182 304.076)" fill="white"/>
<rect width="4.01014" height="575.459" transform="matrix(0.71955 -0.694441 0.71955 0.694441 -192.726 286.47)" fill="white"/>
<rect width="4.01014" height="575.459" transform="matrix(0.71955 -0.694441 0.71955 0.694441 -186.268 268.863)" fill="white"/>
<rect width="4.01014" height="575.459" transform="matrix(0.71955 -0.694441 0.71955 0.694441 -179.811 251.255)" fill="white"/>
<rect width="4.01014" height="575.459" transform="matrix(0.71955 -0.694441 0.71955 0.694441 -173.353 233.648)" fill="white"/>
<rect width="4.01014" height="575.459" transform="matrix(0.71955 -0.694441 0.71955 0.694441 -166.895 216.041)" fill="white"/>
<rect width="4.01014" height="575.459" transform="matrix(0.71955 -0.694441 0.71955 0.694441 -160.438 198.434)" fill="white"/>
</g>
</svg>
