<svg width="406" height="136" viewBox="0 0 406 136" fill="none" xmlns="http://www.w3.org/2000/svg">
<path d="M244.947 0H258.308V135.1H244.947V0Z" fill="#FF4B00"/>
<path d="M220.452 0H233.813V135.1H220.452V0Z" fill="#FF4B00"/>
<path d="M269.442 0H282.802V135.1H269.442V0Z" fill="#FF4B00"/>
<path d="M293.936 0H307.297V135.1H293.936V0Z" fill="#FF4B00"/>
<path d="M318.431 0H331.792V135.1H318.431V0Z" fill="#FF4B00"/>
<path d="M342.926 0H356.286V135.1H342.926V0Z" fill="#FF4B00"/>
<path d="M367.42 0H380.781V135.1H367.42V0Z" fill="#FF4B00"/>
<path d="M391.915 0H405.276V135.1H391.915V0Z" fill="#FF4B00"/>
<path d="M195.957 0H209.318V135.1H195.957V0Z" fill="#FF4B00"/>
<path d="M171.463 0H184.824V135.1H171.463V0Z" fill="#FF4B00"/>
<path d="M24.4947 0H37.8554V135.1H24.4947V0Z" fill="#FF4B00"/>
<path d="M48.9894 0H62.3501V135.1H48.9894V0Z" fill="#FF4B00"/>
<path d="M73.4841 0H86.8448V135.1H73.4841V0Z" fill="#FF4B00"/>
<path d="M97.9787 0H111.339V135.1H97.9787V0Z" fill="#FF4B00"/>
<path d="M122.473 0H135.834V135.1H122.473V0Z" fill="#FF4B00"/>
<path d="M0 0H13.3607V135.1H0V0Z" fill="#FF4B00"/>
<path d="M146.968 0H160.329V135.1H146.968V0Z" fill="#FF4B00"/>
</svg>
