<svg width="1005" height="1000" viewBox="0 0 1005 1000" fill="none" xmlns="http://www.w3.org/2000/svg">
<rect width="5.11099" height="733.433" transform="matrix(0.709141 -0.705067 0.709141 0.705067 0 482.068)" fill="white"/>
<rect width="5.11099" height="733.433" transform="matrix(0.709141 -0.705067 0.709141 0.705067 22.917 459.284)" fill="white"/>
<rect width="5.11099" height="733.433" transform="matrix(0.709141 -0.705067 0.709141 0.705067 45.832 436.5)" fill="white"/>
<rect width="5.11099" height="733.433" transform="matrix(0.709141 -0.705067 0.709141 0.705067 68.7471 413.716)" fill="white"/>
<rect width="5.11099" height="733.433" transform="matrix(0.709141 -0.705067 0.709141 0.705067 91.666 390.932)" fill="white"/>
<rect width="5.11099" height="733.433" transform="matrix(0.709141 -0.705067 0.709141 0.705067 114.581 368.148)" fill="white"/>
<rect width="5.11099" height="733.433" transform="matrix(0.709141 -0.705067 0.709141 0.705067 137.495 345.364)" fill="white"/>
<rect width="5.11099" height="733.433" transform="matrix(0.709141 -0.705067 0.709141 0.705067 160.411 322.58)" fill="white"/>
<rect width="5.11099" height="733.433" transform="matrix(0.709141 -0.705067 0.709141 0.705067 183.328 299.796)" fill="white"/>
<rect width="5.11099" height="733.433" transform="matrix(0.709141 -0.705067 0.709141 0.705067 206.242 277.012)" fill="white"/>
<rect width="5.11099" height="733.433" transform="matrix(0.709141 -0.705067 0.709141 0.705067 229.158 254.228)" fill="white"/>
<rect width="5.11099" height="733.433" transform="matrix(0.709141 -0.705067 0.709141 0.705067 252.074 231.444)" fill="white"/>
<rect width="5.11099" height="733.433" transform="matrix(0.709141 -0.705067 0.709141 0.705067 274.989 208.66)" fill="white"/>
<rect width="5.11099" height="733.433" transform="matrix(0.709141 -0.705067 0.709141 0.705067 297.904 185.876)" fill="white"/>
<rect width="5.11099" height="733.433" transform="matrix(0.709141 -0.705067 0.709141 0.705067 320.82 163.092)" fill="white"/>
<rect width="5.11099" height="733.433" transform="matrix(0.709141 -0.705067 0.709141 0.705067 343.736 140.308)" fill="white"/>
<rect width="5.11099" height="733.433" transform="matrix(0.709141 -0.705067 0.709141 0.705067 366.65 117.524)" fill="white"/>
<rect width="5.11099" height="733.433" transform="matrix(0.709141 -0.705067 0.709141 0.705067 389.568 94.7402)" fill="white"/>
<rect width="5.11099" height="733.433" transform="matrix(0.709141 -0.705067 0.709141 0.705067 412.483 71.9564)" fill="white"/>
<rect width="5.11099" height="733.433" transform="matrix(0.709141 -0.705067 0.709141 0.705067 435.398 49.1724)" fill="white"/>
<rect width="5.11099" height="733.433" transform="matrix(0.709141 -0.705067 0.709141 0.705067 458.313 26.3884)" fill="white"/>
<rect width="5.11099" height="733.433" transform="matrix(0.709141 -0.705067 0.709141 0.705067 481.23 3.60449)" fill="white"/>
</svg>
