<svg width="1675" height="1594" viewBox="0 0 1675 1594" fill="none" xmlns="http://www.w3.org/2000/svg">
<rect width="55.2994" height="1066.53" transform="matrix(0.836198 0.548428 -0.560331 0.828269 597.612 6.28076)" fill="white"/>
<rect width="55.2994" height="1066.53" transform="matrix(0.836198 0.548428 -0.560331 0.828269 691.352 66.9374)" fill="white"/>
<rect width="55.2994" height="1066.53" transform="matrix(0.836198 0.548428 -0.560331 0.828269 785.09 127.592)" fill="white"/>
<rect width="55.2994" height="1066.53" transform="matrix(0.836198 0.548428 -0.560331 0.828269 878.83 188.248)" fill="white"/>
<rect width="55.2994" height="1066.53" transform="matrix(0.836198 0.548428 -0.560331 0.828269 972.569 248.9)" fill="white"/>
<rect width="55.2994" height="1066.53" transform="matrix(0.836198 0.548428 -0.560331 0.828269 1066.31 309.556)" fill="white"/>
<rect width="55.2994" height="1066.53" transform="matrix(0.836198 0.548428 -0.560331 0.828269 1160.05 370.21)" fill="white"/>
<rect width="55.2994" height="1066.53" transform="matrix(0.836198 0.548428 -0.560331 0.828269 1253.79 430.867)" fill="white"/>
<rect width="55.2994" height="1066.53" transform="matrix(0.836198 0.548428 -0.560331 0.828269 1347.53 491.524)" fill="white"/>
<rect width="55.2994" height="1066.53" transform="matrix(0.836198 0.548428 -0.560331 0.828269 1441.27 552.18)" fill="white"/>
<rect width="55.2994" height="1066.53" transform="matrix(0.836198 0.548428 -0.560331 0.828269 1535 612.836)" fill="white"/>
<rect width="55.2994" height="1066.53" transform="matrix(0.836198 0.548428 -0.560331 0.828269 1628.74 673.49)" fill="white"/>
</svg>
