<svg width="623" height="45" viewBox="0 0 623 45" fill="none" xmlns="http://www.w3.org/2000/svg">
<path fill-rule="evenodd" clip-rule="evenodd" d="M262.411 22.0063L222.014 0V13.7732H179.033V30.5443H222.014V44.0127L262.411 22.0063Z" fill="white"/>
<path fill-rule="evenodd" clip-rule="evenodd" d="M172.895 22.207L132.498 0.200684V13.9739H89.5161V30.745H132.498V44.2134L172.895 22.207Z" fill="black"/>
<path fill-rule="evenodd" clip-rule="evenodd" d="M83.3791 22.207L42.9822 0.200684V13.9739H0V30.745H42.9822V44.2134L83.3791 22.207Z" fill="white"/>
<path fill-rule="evenodd" clip-rule="evenodd" d="M622.229 22.207L581.832 0.200684V13.9739H538.849V30.745H581.832V44.2134L622.229 22.207Z" fill="white"/>
<path fill-rule="evenodd" clip-rule="evenodd" d="M531.838 22.207L491.442 0.200684V13.974H448.46V30.7451H491.442V44.2134L531.838 22.207Z" fill="black"/>
<path fill-rule="evenodd" clip-rule="evenodd" d="M441.447 22.207L401.05 0.200684V13.9739H358.068V30.745H401.05V44.2134L441.447 22.207Z" fill="white"/>
<path fill-rule="evenodd" clip-rule="evenodd" d="M351.928 22.207L311.531 0.200684V13.9739H268.549V30.745H311.531V44.2134L351.928 22.207Z" fill="black"/>
<path d="M179.478 13.7733H223.429V30.5444H179.478V13.7733Z" fill="white"/>
</svg>
