<svg width="623" height="45" viewBox="0 0 623 45" fill="none" xmlns="http://www.w3.org/2000/svg">
<path fill-rule="evenodd" clip-rule="evenodd" d="M359.815 22.0063L400.212 0V13.7732H443.194V30.5443H400.212V44.0127L359.815 22.0063Z" fill="white"/>
<path fill-rule="evenodd" clip-rule="evenodd" d="M449.334 22.2069L489.731 0.200562V13.9738H532.712V30.7449H489.731V44.2132L449.334 22.2069Z" fill="black"/>
<path fill-rule="evenodd" clip-rule="evenodd" d="M538.85 22.2069L579.247 0.200562V13.9738H622.229V30.7449H579.247V44.2132L538.85 22.2069Z" fill="white"/>
<path fill-rule="evenodd" clip-rule="evenodd" d="M0.000274658 22.207L40.3972 0.200623V13.9738H83.3804V30.7449H40.3972V44.2133L0.000274658 22.207Z" fill="white"/>
<path fill-rule="evenodd" clip-rule="evenodd" d="M90.3879 22.2069L130.785 0.200562V13.9738H173.767V30.7449H130.785V44.2132L90.3879 22.2069Z" fill="black"/>
<path fill-rule="evenodd" clip-rule="evenodd" d="M180.783 22.207L221.18 0.200623V13.9738H264.162V30.7449H221.18V44.2133L180.783 22.207Z" fill="white"/>
<path fill-rule="evenodd" clip-rule="evenodd" d="M270.3 22.207L310.697 0.200623V13.9738H353.679V30.7449H310.697V44.2133L270.3 22.207Z" fill="black"/>
<path d="M442.75 13.7733H398.798V30.5443H442.75V13.7733Z" fill="white"/>
</svg>
