<svg width="988" height="997" viewBox="0 0 988 997" fill="none" xmlns="http://www.w3.org/2000/svg">
<rect width="5.061" height="726.259" transform="matrix(-0.703848 -0.710351 -0.703848 0.710351 987.706 480.931)" fill="#FF4B00"/>
<rect width="5.061" height="726.259" transform="matrix(-0.703848 -0.710351 -0.703848 0.710351 965.182 458.201)" fill="#FF4B00"/>
<rect width="5.061" height="726.259" transform="matrix(-0.703848 -0.710351 -0.703848 0.710351 942.661 435.47)" fill="#FF4B00"/>
<rect width="5.061" height="726.259" transform="matrix(-0.703848 -0.710351 -0.703848 0.710351 920.138 412.74)" fill="#FF4B00"/>
<rect width="5.061" height="726.259" transform="matrix(-0.703848 -0.710351 -0.703848 0.710351 897.616 390.01)" fill="#FF4B00"/>
<rect width="5.061" height="726.259" transform="matrix(-0.703848 -0.710351 -0.703848 0.710351 875.093 367.28)" fill="#FF4B00"/>
<rect width="5.061" height="726.259" transform="matrix(-0.703848 -0.710351 -0.703848 0.710351 852.572 344.549)" fill="#FF4B00"/>
<rect width="5.061" height="726.259" transform="matrix(-0.703848 -0.710351 -0.703848 0.710351 830.05 321.819)" fill="#FF4B00"/>
<rect width="5.061" height="726.259" transform="matrix(-0.703848 -0.710351 -0.703848 0.710351 807.528 299.089)" fill="#FF4B00"/>
<rect width="5.061" height="726.259" transform="matrix(-0.703848 -0.710351 -0.703848 0.710351 785.004 276.359)" fill="#FF4B00"/>
<rect width="5.061" height="726.259" transform="matrix(-0.703848 -0.710351 -0.703848 0.710351 762.482 253.628)" fill="#FF4B00"/>
<rect width="5.061" height="726.259" transform="matrix(-0.703848 -0.710351 -0.703848 0.710351 739.961 230.898)" fill="#FF4B00"/>
<rect width="5.061" height="726.259" transform="matrix(-0.703848 -0.710351 -0.703848 0.710351 717.438 208.168)" fill="#FF4B00"/>
<rect width="5.061" height="726.259" transform="matrix(-0.703848 -0.710351 -0.703848 0.710351 694.917 185.438)" fill="#FF4B00"/>
<rect width="5.061" height="726.259" transform="matrix(-0.703848 -0.710351 -0.703848 0.710351 672.396 162.708)" fill="#FF4B00"/>
<rect width="5.061" height="726.259" transform="matrix(-0.703848 -0.710351 -0.703848 0.710351 649.873 139.977)" fill="#FF4B00"/>
<rect width="5.061" height="726.259" transform="matrix(-0.703848 -0.710351 -0.703848 0.710351 627.35 117.247)" fill="#FF4B00"/>
<rect width="5.061" height="726.259" transform="matrix(-0.703848 -0.710351 -0.703848 0.710351 604.829 94.5168)" fill="#FF4B00"/>
<rect width="5.061" height="726.259" transform="matrix(-0.703848 -0.710351 -0.703848 0.710351 582.306 71.7866)" fill="#FF4B00"/>
<rect width="5.061" height="726.259" transform="matrix(-0.703848 -0.710351 -0.703848 0.710351 559.785 49.0564)" fill="#FF4B00"/>
<rect width="5.061" height="726.259" transform="matrix(-0.703848 -0.710351 -0.703848 0.710351 537.261 26.3262)" fill="#FF4B00"/>
<rect width="5.061" height="726.259" transform="matrix(-0.703848 -0.710351 -0.703848 0.710351 514.739 3.59583)" fill="#FF4B00"/>
</svg>
