<svg width="584" height="97" viewBox="0 0 584 97" fill="none" xmlns="http://www.w3.org/2000/svg">
<path fill-rule="evenodd" clip-rule="evenodd" d="M48.6434 30.7911L17.6013 0.00012207L8.57602e-05 17.4589L31.0422 48.2499L-3.6794e-05 79.041L17.6012 96.4998L48.6434 65.7087L79.6856 96.4997L97.2868 79.0409L66.2447 48.2499L97.2867 17.459L79.6855 0.000193607L48.6434 30.7911Z" fill="#3E3E3E"/>
<path fill-rule="evenodd" clip-rule="evenodd" d="M145.932 30.791L114.889 0L97.2882 17.4588L128.33 48.2498L97.2881 79.0409L114.889 96.4997L145.932 65.7086L176.974 96.4996L194.575 79.0408L163.533 48.2498L194.575 17.4589L176.974 7.15362e-05L145.932 30.791Z" fill="#3E3E3E"/>
<path fill-rule="evenodd" clip-rule="evenodd" d="M243.218 30.7911L212.176 9.15527e-05L194.574 17.4589L225.617 48.2499L194.574 79.041L212.176 96.4998L243.218 65.7087L274.26 96.4997L291.861 79.0409L260.819 48.2499L291.861 17.459L274.26 0.000193607L243.218 30.7911Z" fill="#3E3E3E"/>
<path fill-rule="evenodd" clip-rule="evenodd" d="M340.506 30.7909L309.464 0L291.863 17.4588L322.905 48.2498L291.862 79.0408L309.464 96.4996L340.506 65.7086L371.548 96.4996L389.149 79.0408L358.107 48.2497L389.149 17.4588L371.548 4.10187e-05L340.506 30.7909Z" fill="#3E3E3E"/>
<path fill-rule="evenodd" clip-rule="evenodd" d="M437.791 30.7911L406.749 0.00012207L389.148 17.4589L420.19 48.2499L389.148 79.041L406.749 96.4998L437.791 65.7087L468.833 96.4997L486.435 79.0409L455.392 48.2499L486.434 17.459L468.833 0.000224124L437.791 30.7911Z" fill="#3E3E3E"/>
<path fill-rule="evenodd" clip-rule="evenodd" d="M535.079 30.7909L504.037 0L486.436 17.4588L517.478 48.2498L486.436 79.0408L504.037 96.4996L535.079 65.7086L566.121 96.4996L583.723 79.0408L552.68 48.2497L583.723 17.4588L566.121 4.10187e-05L535.079 30.7909Z" fill="#3E3E3E"/>
</svg>
