<svg width="814" height="420" viewBox="0 0 814 420" fill="none" xmlns="http://www.w3.org/2000/svg">
<rect width="814" height="420" fill="black"/>
<g clip-path="url(#clip0_100_9)">
<path d="M99.0317 5.34538V18.3512H91.213V7.94653H78.1816V31.357H91.213V26.1547H99.0317V33.9581H96.4254V36.5593H93.8192V39.1604H75.5753V36.5593H72.969V33.9581H70.3628V5.34538H72.969V2.74422H75.5753V0.143066H93.8192V2.74422H96.4254V5.34538H99.0317Z" fill="white"/>
<path d="M131.48 7.94653H121.055V39.1604H113.236V7.94653H102.811V0.143066H131.48V7.94653Z" fill="white"/>
<path d="M165.361 10.5477V23.5535H162.755V26.1547H160.149V28.7558H157.542V31.357H160.149V33.9581H162.755V36.5593H165.361V39.1604H154.936V36.5593H152.33V33.9581H144.511V39.1604H136.692V0.143066H154.936V2.74422H157.542V5.34538H160.149V7.94653H162.755V10.5477H165.361ZM157.542 20.9524V13.1489H154.936V10.5477H152.33V7.94653H144.511V26.1547H152.33V23.5535H154.936V20.9524H157.542Z" fill="white"/>
<path d="M195.782 39.1604H177.538V36.5593H174.931V33.9581H172.325V0.143066H180.144V31.357H195.782V39.1604Z" fill="white"/>
</g>
<g clip-path="url(#clip1_100_9)">
<path d="M717.061 5.34538V18.3512H709.242V7.94653H696.211V31.357H709.242V26.1547H717.061V33.9581H714.455V36.5593H711.848V39.1604H693.605V36.5593H690.998V33.9581H688.392V5.34538H690.998V2.74422H693.605V0.143066H711.848V2.74422H714.455V5.34538H717.061Z" fill="white"/>
<path d="M749.51 7.94653H739.085V39.1604H731.266V7.94653H720.841V0.143066H749.51V7.94653Z" fill="white"/>
<path d="M783.391 10.5477V23.5535H780.784V26.1547H778.178V28.7558H775.572V31.357H778.178V33.9581H780.784V36.5593H783.391V39.1604H772.966V36.5593H770.359V33.9581H762.541V39.1604H754.722V0.143066H772.966V2.74422H775.572V5.34538H778.178V7.94653H780.784V10.5477H783.391ZM775.572 20.9524V13.1489H772.966V10.5477H770.359V7.94653H762.541V26.1547H770.359V23.5535H772.966V20.9524H775.572Z" fill="white"/>
<path d="M813.812 39.1604H795.568V36.5593H792.962V33.9581H790.355V0.143066H798.174V31.357H813.812V39.1604Z" fill="white"/>
</g>
<g clip-path="url(#clip2_100_9)">
<path d="M562.556 5.34538V18.3512H554.737V7.94653H541.706V31.357H554.737V26.1547H562.556V33.9581H559.949V36.5593H557.343V39.1604H539.099V36.5593H536.493V33.9581H533.887V5.34538H536.493V2.74422H539.099V0.143066H557.343V2.74422H559.949V5.34538H562.556Z" fill="white"/>
<path d="M595.003 7.94653H584.578V39.1604H576.76V7.94653H566.334V0.143066H595.003V7.94653Z" fill="white"/>
<path d="M628.885 10.5477V23.5535H626.279V26.1547H623.672V28.7558H621.066V31.357H623.672V33.9581H626.279V36.5593H628.885V39.1604H618.46V36.5593H615.853V33.9581H608.035V39.1604H600.216V0.143066H618.46V2.74422H621.066V5.34538H623.672V7.94653H626.279V10.5477H628.885ZM621.066 20.9524V13.1489H618.46V10.5477H615.853V7.94653H608.035V26.1547H615.853V23.5535H618.46V20.9524H621.066Z" fill="white"/>
<path d="M659.306 39.1604H641.062V36.5593H638.455V33.9581H635.849V0.143066H643.668V31.357H659.306V39.1604Z" fill="white"/>
</g>
<g clip-path="url(#clip3_100_9)">
<path d="M408.048 5.34538V18.3512H400.229V7.94653H387.198V31.357H400.229V26.1547H408.048V33.9581H405.441V36.5593H402.835V39.1604H384.591V36.5593H381.985V33.9581H379.379V5.34538H381.985V2.74422H384.591V0.143066H402.835V2.74422H405.441V5.34538H408.048Z" fill="white"/>
<path d="M440.496 7.94653H430.071V39.1604H422.252V7.94653H411.827V0.143066H440.496V7.94653Z" fill="white"/>
<path d="M474.376 10.5477V23.5535H471.77V26.1547H469.164V28.7558H466.557V31.357H469.164V33.9581H471.77V36.5593H474.376V39.1604H463.951V36.5593H461.345V33.9581H453.526V39.1604H445.707V0.143066H463.951V2.74422H466.557V5.34538H469.164V7.94653H471.77V10.5477H474.376ZM466.557 20.9524V13.1489H463.951V10.5477H461.345V7.94653H453.526V26.1547H461.345V23.5535H463.951V20.9524H466.557Z" fill="white"/>
<path d="M504.798 39.1604H486.554V36.5593H483.947V33.9581H481.341V0.143066H489.16V31.357H504.798V39.1604Z" fill="white"/>
</g>
<g clip-path="url(#clip4_100_9)">
<path d="M253.539 5.34538V18.3512H245.721V7.94653H232.689V31.357H245.721V26.1547H253.539V33.9581H250.933V36.5593H248.327V39.1604H230.083V36.5593H227.477V33.9581H224.87V5.34538H227.477V2.74422H230.083V0.143066H248.327V2.74422H250.933V5.34538H253.539Z" fill="white"/>
<path d="M285.987 7.94653H275.562V39.1604H267.743V7.94653H257.318V0.143066H285.987V7.94653Z" fill="white"/>
<path d="M319.869 10.5477V23.5535H317.262V26.1547H314.656V28.7558H312.05V31.357H314.656V33.9581H317.262V36.5593H319.869V39.1604H309.444V36.5593H306.837V33.9581H299.019V39.1604H291.2V0.143066H309.444V2.74422H312.05V5.34538H314.656V7.94653H317.262V10.5477H319.869ZM312.05 20.9524V13.1489H309.444V10.5477H306.837V7.94653H299.019V26.1547H306.837V23.5535H309.444V20.9524H312.05Z" fill="white"/>
<path d="M350.289 39.1604H332.045V36.5593H329.439V33.9581H326.833V0.143066H334.651V31.357H350.289V39.1604Z" fill="white"/>
</g>
<g clip-path="url(#clip5_100_9)">
<path d="M28.6684 59.7506V72.7564H20.8497V62.3518H7.8183V85.7623H20.8497V80.56H28.6684V88.3634H26.0621V90.9646H23.4559V93.5657H5.21204V90.9646H2.60577V88.3634H-0.000488281V59.7506H2.60577V57.1495H5.21204V54.5483H23.4559V57.1495H26.0621V59.7506H28.6684Z" fill="white"/>
<path d="M61.1164 62.3518H50.6913V93.5657H42.8726V62.3518H32.4475V54.5483H61.1164V62.3518Z" fill="white"/>
<path d="M94.9975 64.953V77.9588H92.3914V80.56H89.785V83.1611H87.1788V85.7623H89.785V88.3634H92.3914V90.9646H94.9975V93.5657H84.5726V90.9646H81.9663V88.3634H74.1475V93.5657H66.3286V54.5483H84.5726V57.1495H87.1788V59.7506H89.785V62.3518H92.3914V64.953H94.9975ZM87.1788 75.3576V67.5541H84.5726V64.953H81.9663V62.3518H74.1475V80.56H81.9663V77.9588H84.5726V75.3576H87.1788Z" fill="white"/>
<path d="M125.418 93.5657H107.174V90.9646H104.568V88.3634H101.962V54.5483H109.78V85.7623H125.418V93.5657Z" fill="white"/>
</g>
<g clip-path="url(#clip6_100_9)">
<path d="M646.7 59.7506V72.7564H638.881V62.3518H625.85V85.7623H638.881V80.56H646.7V88.3634H644.093V90.9646H641.487V93.5657H623.243V90.9646H620.637V88.3634H618.031V59.7506H620.637V57.1495H623.243V54.5483H641.487V57.1495H644.093V59.7506H646.7Z" fill="white"/>
<path d="M679.147 62.3518H668.722V93.5657H660.904V62.3518H650.479V54.5483H679.147V62.3518Z" fill="white"/>
<path d="M713.029 64.953V77.9588H710.423V80.56H707.816V83.1611H705.21V85.7623H707.816V88.3634H710.423V90.9646H713.029V93.5657H702.604V90.9646H699.998V88.3634H692.179V93.5657H684.36V54.5483H702.604V57.1495H705.21V59.7506H707.816V62.3518H710.423V64.953H713.029ZM705.21 75.3576V67.5541H702.604V64.953H699.998V62.3518H692.179V80.56H699.998V77.9588H702.604V75.3576H705.21Z" fill="white"/>
<path d="M743.45 93.5657H725.206V90.9646H722.599V88.3634H719.993V54.5483H727.812V85.7623H743.45V93.5657Z" fill="white"/>
</g>
<g clip-path="url(#clip7_100_9)">
<path d="M492.193 59.7506V72.7564H484.374V62.3518H471.343V85.7623H484.374V80.56H492.193V88.3634H489.587V90.9646H486.981V93.5657H468.737V90.9646H466.13V88.3634H463.524V59.7506H466.13V57.1495H468.737V54.5483H486.981V57.1495H489.587V59.7506H492.193Z" fill="white"/>
<path d="M524.64 62.3518H514.215V93.5657H506.396V62.3518H495.971V54.5483H524.64V62.3518Z" fill="white"/>
<path d="M558.522 64.953V77.9588H555.916V80.56H553.31V83.1611H550.704V85.7623H553.31V88.3634H555.916V90.9646H558.522V93.5657H548.098V90.9646H545.491V88.3634H537.672V93.5657H529.854V54.5483H548.098V57.1495H550.704V59.7506H553.31V62.3518H555.916V64.953H558.522ZM550.704 75.3576V67.5541H548.098V64.953H545.491V62.3518H537.672V80.56H545.491V77.9588H548.098V75.3576H550.704Z" fill="white"/>
<path d="M588.943 93.5657H570.699V90.9646H568.092V88.3634H565.486V54.5483H573.305V85.7623H588.943V93.5657Z" fill="white"/>
</g>
<g clip-path="url(#clip8_100_9)">
<path d="M337.684 59.7506V72.7564H329.866V62.3518H316.834V85.7623H329.866V80.56H337.684V88.3634H335.078V90.9646H332.472V93.5657H314.228V90.9646H311.622V88.3634H309.015V59.7506H311.622V57.1495H314.228V54.5483H332.472V57.1495H335.078V59.7506H337.684Z" fill="white"/>
<path d="M370.131 62.3518H359.706V93.5657H351.888V62.3518H341.462V54.5483H370.131V62.3518Z" fill="white"/>
<path d="M404.014 64.953V77.9588H401.407V80.56H398.801V83.1611H396.195V85.7623H398.801V88.3634H401.407V90.9646H404.014V93.5657H393.589V90.9646H390.982V88.3634H383.164V93.5657H375.345V54.5483H393.589V57.1495H396.195V59.7506H398.801V62.3518H401.407V64.953H404.014ZM396.195 75.3576V67.5541H393.589V64.953H390.982V62.3518H383.164V80.56H390.982V77.9588H393.589V75.3576H396.195Z" fill="white"/>
<path d="M434.434 93.5657H416.19V90.9646H413.584V88.3634H410.978V54.5483H418.797V85.7623H434.434V93.5657Z" fill="white"/>
</g>
<g clip-path="url(#clip9_100_9)">
<path d="M183.177 59.7506V72.7564H175.358V62.3518H162.327V85.7623H175.358V80.56H183.177V88.3634H180.571V90.9646H177.964V93.5657H159.721V90.9646H157.114V88.3634H154.508V59.7506H157.114V57.1495H159.721V54.5483H177.964V57.1495H180.571V59.7506H183.177Z" fill="white"/>
<path d="M215.625 62.3518H205.2V93.5657H197.381V62.3518H186.956V54.5483H215.625V62.3518Z" fill="white"/>
<path d="M249.505 64.953V77.9588H246.899V80.56H244.293V83.1611H241.687V85.7623H244.293V88.3634H246.899V90.9646H249.505V93.5657H239.08V90.9646H236.474V88.3634H228.655V93.5657H220.836V54.5483H239.08V57.1495H241.687V59.7506H244.293V62.3518H246.899V64.953H249.505ZM241.687 75.3576V67.5541H239.08V64.953H236.474V62.3518H228.655V80.56H236.474V77.9588H239.08V75.3576H241.687Z" fill="white"/>
<path d="M279.927 93.5657H261.683V90.9646H259.077V88.3634H256.47V54.5483H264.289V85.7623H279.927V93.5657Z" fill="white"/>
</g>
<g clip-path="url(#clip10_100_9)">
<path d="M99.0317 114.154V127.16H91.213V116.755H78.1816V140.165H91.213V134.963H99.0317V142.766H96.4254V145.368H93.8192V147.969H75.5753V145.368H72.969V142.766H70.3628V114.154H72.969V111.553H75.5753V108.951H93.8192V111.553H96.4254V114.154H99.0317Z" fill="white"/>
<path d="M131.48 116.755H121.055V147.969H113.236V116.755H102.811V108.951H131.48V116.755Z" fill="white"/>
<path d="M165.361 119.356V132.362H162.755V134.963H160.149V137.564H157.542V140.165H160.149V142.766H162.755V145.368H165.361V147.969H154.936V145.368H152.33V142.766H144.511V147.969H136.692V108.951H154.936V111.553H157.542V114.154H160.149V116.755H162.755V119.356H165.361ZM157.542 129.761V121.957H154.936V119.356H152.33V116.755H144.511V134.963H152.33V132.362H154.936V129.761H157.542Z" fill="white"/>
<path d="M195.782 147.969H177.538V145.368H174.931V142.766H172.325V108.951H180.144V140.165H195.782V147.969Z" fill="white"/>
</g>
<g clip-path="url(#clip11_100_9)">
<path d="M717.061 114.154V127.16H709.242V116.755H696.211V140.165H709.242V134.963H717.061V142.766H714.455V145.368H711.848V147.969H693.605V145.368H690.998V142.766H688.392V114.154H690.998V111.553H693.605V108.951H711.848V111.553H714.455V114.154H717.061Z" fill="white"/>
<path d="M749.51 116.755H739.085V147.969H731.266V116.755H720.841V108.951H749.51V116.755Z" fill="white"/>
<path d="M783.391 119.356V132.362H780.784V134.963H778.178V137.564H775.572V140.165H778.178V142.766H780.784V145.368H783.391V147.969H772.966V145.368H770.359V142.766H762.541V147.969H754.722V108.951H772.966V111.553H775.572V114.154H778.178V116.755H780.784V119.356H783.391ZM775.572 129.761V121.957H772.966V119.356H770.359V116.755H762.541V134.963H770.359V132.362H772.966V129.761H775.572Z" fill="white"/>
<path d="M813.812 147.969H795.568V145.368H792.962V142.766H790.355V108.951H798.174V140.165H813.812V147.969Z" fill="white"/>
</g>
<g clip-path="url(#clip12_100_9)">
<path d="M562.556 114.154V127.16H554.737V116.755H541.706V140.165H554.737V134.963H562.556V142.766H559.949V145.368H557.343V147.969H539.099V145.368H536.493V142.766H533.887V114.154H536.493V111.553H539.099V108.951H557.343V111.553H559.949V114.154H562.556Z" fill="white"/>
<path d="M595.003 116.755H584.578V147.969H576.76V116.755H566.334V108.951H595.003V116.755Z" fill="white"/>
<path d="M628.885 119.356V132.362H626.279V134.963H623.672V137.564H621.066V140.165H623.672V142.766H626.279V145.368H628.885V147.969H618.46V145.368H615.853V142.766H608.035V147.969H600.216V108.951H618.46V111.553H621.066V114.154H623.672V116.755H626.279V119.356H628.885ZM621.066 129.761V121.957H618.46V119.356H615.853V116.755H608.035V134.963H615.853V132.362H618.46V129.761H621.066Z" fill="white"/>
<path d="M659.306 147.969H641.062V145.368H638.455V142.766H635.849V108.951H643.668V140.165H659.306V147.969Z" fill="white"/>
</g>
<g clip-path="url(#clip13_100_9)">
<path d="M408.048 114.154V127.16H400.229V116.755H387.198V140.165H400.229V134.963H408.048V142.766H405.441V145.368H402.835V147.969H384.591V145.368H381.985V142.766H379.379V114.154H381.985V111.553H384.591V108.951H402.835V111.553H405.441V114.154H408.048Z" fill="white"/>
<path d="M440.496 116.755H430.071V147.969H422.252V116.755H411.827V108.951H440.496V116.755Z" fill="white"/>
<path d="M474.376 119.356V132.362H471.77V134.963H469.164V137.564H466.557V140.165H469.164V142.766H471.77V145.368H474.376V147.969H463.951V145.368H461.345V142.766H453.526V147.969H445.707V108.951H463.951V111.553H466.557V114.154H469.164V116.755H471.77V119.356H474.376ZM466.557 129.761V121.957H463.951V119.356H461.345V116.755H453.526V134.963H461.345V132.362H463.951V129.761H466.557Z" fill="white"/>
<path d="M504.798 147.969H486.554V145.368H483.947V142.766H481.341V108.951H489.16V140.165H504.798V147.969Z" fill="white"/>
</g>
<g clip-path="url(#clip14_100_9)">
<rect width="125.492" height="39.171" transform="translate(224.871 108.808)" fill="#1F1515"/>
<path d="M253.539 114.154V127.16H245.721V116.755H232.689V140.165H245.721V134.963H253.539V142.766H250.933V145.368H248.327V147.969H230.083V145.368H227.477V142.766H224.87V114.154H227.477V111.553H230.083V108.951H248.327V111.553H250.933V114.154H253.539Z" fill="white"/>
<path d="M285.987 116.755H275.562V147.969H267.743V116.755H257.318V108.951H285.987V116.755Z" fill="white"/>
<path d="M319.869 119.356V132.362H317.262V134.963H314.656V137.564H312.05V140.165H314.656V142.766H317.262V145.368H319.869V147.969H309.444V145.368H306.837V142.766H299.019V147.969H291.2V108.951H309.444V111.553H312.05V114.154H314.656V116.755H317.262V119.356H319.869ZM312.05 129.761V121.957H309.444V119.356H306.837V116.755H299.019V134.963H306.837V132.362H309.444V129.761H312.05Z" fill="white"/>
<path d="M350.289 147.969H332.045V145.368H329.439V142.766H326.833V108.951H334.651V140.165H350.289V147.969Z" fill="white"/>
</g>
<g clip-path="url(#clip15_100_9)">
<path d="M28.6684 168.558V181.564H20.8497V171.159H7.8183V194.569H20.8497V189.367H28.6684V197.171H26.0621V199.772H23.4559V202.373H5.21204V199.772H2.60577V197.171H-0.000488281V168.558H2.60577V165.957H5.21204V163.355H23.4559V165.957H26.0621V168.558H28.6684Z" fill="white"/>
<path d="M61.1164 171.159H50.6913V202.373H42.8726V171.159H32.4475V163.355H61.1164V171.159Z" fill="white"/>
<path d="M94.9975 173.76V186.766H92.3914V189.367H89.785V191.968H87.1788V194.569H89.785V197.171H92.3914V199.772H94.9975V202.373H84.5726V199.772H81.9663V197.171H74.1475V202.373H66.3286V163.355H84.5726V165.957H87.1788V168.558H89.785V171.159H92.3914V173.76H94.9975ZM87.1788 184.165V176.361H84.5726V173.76H81.9663V171.159H74.1475V189.367H81.9663V186.766H84.5726V184.165H87.1788Z" fill="white"/>
<path d="M125.418 202.373H107.174V199.772H104.568V197.171H101.962V163.355H109.78V194.569H125.418V202.373Z" fill="white"/>
</g>
<g clip-path="url(#clip16_100_9)">
<path d="M646.7 168.558V181.564H638.881V171.159H625.85V194.569H638.881V189.367H646.7V197.171H644.093V199.772H641.487V202.373H623.243V199.772H620.637V197.171H618.031V168.558H620.637V165.957H623.243V163.355H641.487V165.957H644.093V168.558H646.7Z" fill="white"/>
<path d="M679.147 171.159H668.722V202.373H660.904V171.159H650.479V163.355H679.147V171.159Z" fill="white"/>
<path d="M713.029 173.76V186.766H710.423V189.367H707.816V191.968H705.21V194.569H707.816V197.171H710.423V199.772H713.029V202.373H702.604V199.772H699.998V197.171H692.179V202.373H684.36V163.355H702.604V165.957H705.21V168.558H707.816V171.159H710.423V173.76H713.029ZM705.21 184.165V176.361H702.604V173.76H699.998V171.159H692.179V189.367H699.998V186.766H702.604V184.165H705.21Z" fill="white"/>
<path d="M743.45 202.373H725.206V199.772H722.599V197.171H719.993V163.355H727.812V194.569H743.45V202.373Z" fill="white"/>
</g>
<g clip-path="url(#clip17_100_9)">
<path d="M492.193 168.558V181.564H484.374V171.159H471.343V194.569H484.374V189.367H492.193V197.171H489.587V199.772H486.981V202.373H468.737V199.772H466.13V197.171H463.524V168.558H466.13V165.957H468.737V163.355H486.981V165.957H489.587V168.558H492.193Z" fill="white"/>
<path d="M524.64 171.159H514.215V202.373H506.396V171.159H495.971V163.355H524.64V171.159Z" fill="white"/>
<path d="M558.522 173.76V186.766H555.916V189.367H553.31V191.968H550.704V194.569H553.31V197.171H555.916V199.772H558.522V202.373H548.098V199.772H545.491V197.171H537.672V202.373H529.854V163.355H548.098V165.957H550.704V168.558H553.31V171.159H555.916V173.76H558.522ZM550.704 184.165V176.361H548.098V173.76H545.491V171.159H537.672V189.367H545.491V186.766H548.098V184.165H550.704Z" fill="white"/>
<path d="M588.943 202.373H570.699V199.772H568.092V197.171H565.486V163.355H573.305V194.569H588.943V202.373Z" fill="white"/>
</g>
<g clip-path="url(#clip18_100_9)">
<path d="M337.684 168.558V181.564H329.866V171.159H316.834V194.569H329.866V189.367H337.684V197.171H335.078V199.772H332.472V202.373H314.228V199.772H311.622V197.171H309.015V168.558H311.622V165.957H314.228V163.355H332.472V165.957H335.078V168.558H337.684Z" fill="white"/>
<path d="M370.131 171.159H359.706V202.373H351.888V171.159H341.462V163.355H370.131V171.159Z" fill="white"/>
<path d="M404.014 173.76V186.766H401.407V189.367H398.801V191.968H396.195V194.569H398.801V197.171H401.407V199.772H404.014V202.373H393.589V199.772H390.982V197.171H383.164V202.373H375.345V163.355H393.589V165.957H396.195V168.558H398.801V171.159H401.407V173.76H404.014ZM396.195 184.165V176.361H393.589V173.76H390.982V171.159H383.164V189.367H390.982V186.766H393.589V184.165H396.195Z" fill="white"/>
<path d="M434.434 202.373H416.19V199.772H413.584V197.171H410.978V163.355H418.797V194.569H434.434V202.373Z" fill="white"/>
</g>
<g clip-path="url(#clip19_100_9)">
<path d="M183.177 168.558V181.564H175.358V171.159H162.327V194.569H175.358V189.367H183.177V197.171H180.571V199.772H177.964V202.373H159.721V199.772H157.114V197.171H154.508V168.558H157.114V165.957H159.721V163.355H177.964V165.957H180.571V168.558H183.177Z" fill="white"/>
<path d="M215.625 171.159H205.2V202.373H197.381V171.159H186.956V163.355H215.625V171.159Z" fill="white"/>
<path d="M249.505 173.76V186.766H246.899V189.367H244.293V191.968H241.687V194.569H244.293V197.171H246.899V199.772H249.505V202.373H239.08V199.772H236.474V197.171H228.655V202.373H220.836V163.355H239.08V165.957H241.687V168.558H244.293V171.159H246.899V173.76H249.505ZM241.687 184.165V176.361H239.08V173.76H236.474V171.159H228.655V189.367H236.474V186.766H239.08V184.165H241.687Z" fill="white"/>
<path d="M279.927 202.373H261.683V199.772H259.077V197.171H256.47V163.355H264.289V194.569H279.927V202.373Z" fill="white"/>
</g>
<g clip-path="url(#clip20_100_9)">
<path d="M99.0317 222.963V235.968H91.213V225.564H78.1816V248.974H91.213V243.772H99.0317V251.575H96.4254V254.176H93.8192V256.778H75.5753V254.176H72.969V251.575H70.3628V222.963H72.969V220.361H75.5753V217.76H93.8192V220.361H96.4254V222.963H99.0317Z" fill="white"/>
<path d="M131.48 225.564H121.055V256.778H113.236V225.564H102.811V217.76H131.48V225.564Z" fill="white"/>
<path d="M165.361 228.165V241.171H162.755V243.772H160.149V246.373H157.542V248.974H160.149V251.575H162.755V254.176H165.361V256.778H154.936V254.176H152.33V251.575H144.511V256.778H136.692V217.76H154.936V220.361H157.542V222.963H160.149V225.564H162.755V228.165H165.361ZM157.542 238.57V230.766H154.936V228.165H152.33V225.564H144.511V243.772H152.33V241.171H154.936V238.57H157.542Z" fill="white"/>
<path d="M195.782 256.778H177.538V254.176H174.931V251.575H172.325V217.76H180.144V248.974H195.782V256.778Z" fill="white"/>
</g>
<g clip-path="url(#clip21_100_9)">
<path d="M717.061 222.963V235.968H709.242V225.564H696.211V248.974H709.242V243.772H717.061V251.575H714.455V254.176H711.848V256.778H693.605V254.176H690.998V251.575H688.392V222.963H690.998V220.361H693.605V217.76H711.848V220.361H714.455V222.963H717.061Z" fill="white"/>
<path d="M749.51 225.564H739.085V256.778H731.266V225.564H720.841V217.76H749.51V225.564Z" fill="white"/>
<path d="M783.391 228.165V241.171H780.784V243.772H778.178V246.373H775.572V248.974H778.178V251.575H780.784V254.176H783.391V256.778H772.966V254.176H770.359V251.575H762.541V256.778H754.722V217.76H772.966V220.361H775.572V222.963H778.178V225.564H780.784V228.165H783.391ZM775.572 238.57V230.766H772.966V228.165H770.359V225.564H762.541V243.772H770.359V241.171H772.966V238.57H775.572Z" fill="white"/>
<path d="M813.812 256.778H795.568V254.176H792.962V251.575H790.355V217.76H798.174V248.974H813.812V256.778Z" fill="white"/>
</g>
<g clip-path="url(#clip22_100_9)">
<path d="M562.556 222.963V235.968H554.737V225.564H541.706V248.974H554.737V243.772H562.556V251.575H559.949V254.176H557.343V256.778H539.099V254.176H536.493V251.575H533.887V222.963H536.493V220.361H539.099V217.76H557.343V220.361H559.949V222.963H562.556Z" fill="white"/>
<path d="M595.003 225.564H584.578V256.778H576.76V225.564H566.334V217.76H595.003V225.564Z" fill="white"/>
<path d="M628.885 228.165V241.171H626.279V243.772H623.672V246.373H621.066V248.974H623.672V251.575H626.279V254.176H628.885V256.778H618.46V254.176H615.853V251.575H608.035V256.778H600.216V217.76H618.46V220.361H621.066V222.963H623.672V225.564H626.279V228.165H628.885ZM621.066 238.57V230.766H618.46V228.165H615.853V225.564H608.035V243.772H615.853V241.171H618.46V238.57H621.066Z" fill="white"/>
<path d="M659.306 256.778H641.062V254.176H638.455V251.575H635.849V217.76H643.668V248.974H659.306V256.778Z" fill="white"/>
</g>
<g clip-path="url(#clip23_100_9)">
<path d="M408.048 222.963V235.968H400.229V225.564H387.198V248.974H400.229V243.772H408.048V251.575H405.441V254.176H402.835V256.778H384.591V254.176H381.985V251.575H379.379V222.963H381.985V220.361H384.591V217.76H402.835V220.361H405.441V222.963H408.048Z" fill="white"/>
<path d="M440.496 225.564H430.071V256.778H422.252V225.564H411.827V217.76H440.496V225.564Z" fill="white"/>
<path d="M474.376 228.165V241.171H471.77V243.772H469.164V246.373H466.557V248.974H469.164V251.575H471.77V254.176H474.376V256.778H463.951V254.176H461.345V251.575H453.526V256.778H445.707V217.76H463.951V220.361H466.557V222.963H469.164V225.564H471.77V228.165H474.376ZM466.557 238.57V230.766H463.951V228.165H461.345V225.564H453.526V243.772H461.345V241.171H463.951V238.57H466.557Z" fill="white"/>
<path d="M504.798 256.778H486.554V254.176H483.947V251.575H481.341V217.76H489.16V248.974H504.798V256.778Z" fill="white"/>
</g>
<g clip-path="url(#clip24_100_9)">
<path d="M253.539 222.963V235.968H245.721V225.564H232.689V248.974H245.721V243.772H253.539V251.575H250.933V254.176H248.327V256.778H230.083V254.176H227.477V251.575H224.87V222.963H227.477V220.361H230.083V217.76H248.327V220.361H250.933V222.963H253.539Z" fill="white"/>
<path d="M285.987 225.564H275.562V256.778H267.743V225.564H257.318V217.76H285.987V225.564Z" fill="white"/>
<path d="M319.869 228.165V241.171H317.262V243.772H314.656V246.373H312.05V248.974H314.656V251.575H317.262V254.176H319.869V256.778H309.444V254.176H306.837V251.575H299.019V256.778H291.2V217.76H309.444V220.361H312.05V222.963H314.656V225.564H317.262V228.165H319.869ZM312.05 238.57V230.766H309.444V228.165H306.837V225.564H299.019V243.772H306.837V241.171H309.444V238.57H312.05Z" fill="white"/>
<path d="M350.289 256.778H332.045V254.176H329.439V251.575H326.833V217.76H334.651V248.974H350.289V256.778Z" fill="white"/>
</g>
<g clip-path="url(#clip25_100_9)">
<path d="M28.6684 277.367V290.373H20.8497V279.968H7.8183V303.379H20.8497V298.176H28.6684V305.98H26.0621V308.581H23.4559V311.182H5.21204V308.581H2.60577V305.98H-0.000488281V277.367H2.60577V274.766H5.21204V272.165H23.4559V274.766H26.0621V277.367H28.6684Z" fill="white"/>
<path d="M61.1164 279.968H50.6913V311.182H42.8726V279.968H32.4475V272.165H61.1164V279.968Z" fill="white"/>
<path d="M94.9975 282.569V295.575H92.3914V298.176H89.785V300.778H87.1788V303.379H89.785V305.98H92.3914V308.581H94.9975V311.182H84.5726V308.581H81.9663V305.98H74.1475V311.182H66.3286V272.165H84.5726V274.766H87.1788V277.367H89.785V279.968H92.3914V282.569H94.9975ZM87.1788 292.974V285.171H84.5726V282.569H81.9663V279.968H74.1475V298.176H81.9663V295.575H84.5726V292.974H87.1788Z" fill="white"/>
<path d="M125.418 311.182H107.174V308.581H104.568V305.98H101.962V272.165H109.78V303.379H125.418V311.182Z" fill="white"/>
</g>
<g clip-path="url(#clip26_100_9)">
<path d="M646.7 277.367V290.373H638.881V279.968H625.85V303.379H638.881V298.176H646.7V305.98H644.093V308.581H641.487V311.182H623.243V308.581H620.637V305.98H618.031V277.367H620.637V274.766H623.243V272.165H641.487V274.766H644.093V277.367H646.7Z" fill="white"/>
<path d="M679.147 279.968H668.722V311.182H660.904V279.968H650.479V272.165H679.147V279.968Z" fill="white"/>
<path d="M713.029 282.569V295.575H710.423V298.176H707.816V300.778H705.21V303.379H707.816V305.98H710.423V308.581H713.029V311.182H702.604V308.581H699.998V305.98H692.179V311.182H684.36V272.165H702.604V274.766H705.21V277.367H707.816V279.968H710.423V282.569H713.029ZM705.21 292.974V285.171H702.604V282.569H699.998V279.968H692.179V298.176H699.998V295.575H702.604V292.974H705.21Z" fill="white"/>
<path d="M743.45 311.182H725.206V308.581H722.599V305.98H719.993V272.165H727.812V303.379H743.45V311.182Z" fill="white"/>
</g>
<g clip-path="url(#clip27_100_9)">
<path d="M492.193 277.367V290.373H484.374V279.968H471.343V303.379H484.374V298.176H492.193V305.98H489.587V308.581H486.981V311.182H468.737V308.581H466.13V305.98H463.524V277.367H466.13V274.766H468.737V272.165H486.981V274.766H489.587V277.367H492.193Z" fill="white"/>
<path d="M524.64 279.968H514.215V311.182H506.396V279.968H495.971V272.165H524.64V279.968Z" fill="white"/>
<path d="M558.522 282.569V295.575H555.916V298.176H553.31V300.778H550.704V303.379H553.31V305.98H555.916V308.581H558.522V311.182H548.098V308.581H545.491V305.98H537.672V311.182H529.854V272.165H548.098V274.766H550.704V277.367H553.31V279.968H555.916V282.569H558.522ZM550.704 292.974V285.171H548.098V282.569H545.491V279.968H537.672V298.176H545.491V295.575H548.098V292.974H550.704Z" fill="white"/>
<path d="M588.943 311.182H570.699V308.581H568.092V305.98H565.486V272.165H573.305V303.379H588.943V311.182Z" fill="white"/>
</g>
<g clip-path="url(#clip28_100_9)">
<path d="M337.684 277.367V290.373H329.866V279.968H316.834V303.379H329.866V298.176H337.684V305.98H335.078V308.581H332.472V311.182H314.228V308.581H311.622V305.98H309.015V277.367H311.622V274.766H314.228V272.165H332.472V274.766H335.078V277.367H337.684Z" fill="white"/>
<path d="M370.131 279.968H359.706V311.182H351.888V279.968H341.462V272.165H370.131V279.968Z" fill="white"/>
<path d="M404.014 282.569V295.575H401.407V298.176H398.801V300.778H396.195V303.379H398.801V305.98H401.407V308.581H404.014V311.182H393.589V308.581H390.982V305.98H383.164V311.182H375.345V272.165H393.589V274.766H396.195V277.367H398.801V279.968H401.407V282.569H404.014ZM396.195 292.974V285.171H393.589V282.569H390.982V279.968H383.164V298.176H390.982V295.575H393.589V292.974H396.195Z" fill="white"/>
<path d="M434.434 311.182H416.19V308.581H413.584V305.98H410.978V272.165H418.797V303.379H434.434V311.182Z" fill="white"/>
</g>
<g clip-path="url(#clip29_100_9)">
<path d="M183.177 277.367V290.373H175.358V279.968H162.327V303.379H175.358V298.176H183.177V305.98H180.571V308.581H177.964V311.182H159.721V308.581H157.114V305.98H154.508V277.367H157.114V274.766H159.721V272.165H177.964V274.766H180.571V277.367H183.177Z" fill="white"/>
<path d="M215.625 279.968H205.2V311.182H197.381V279.968H186.956V272.165H215.625V279.968Z" fill="white"/>
<path d="M249.505 282.569V295.575H246.899V298.176H244.293V300.778H241.687V303.379H244.293V305.98H246.899V308.581H249.505V311.182H239.08V308.581H236.474V305.98H228.655V311.182H220.836V272.165H239.08V274.766H241.687V277.367H244.293V279.968H246.899V282.569H249.505ZM241.687 292.974V285.171H239.08V282.569H236.474V279.968H228.655V298.176H236.474V295.575H239.08V292.974H241.687Z" fill="white"/>
<path d="M279.927 311.182H261.683V308.581H259.077V305.98H256.47V272.165H264.289V303.379H279.927V311.182Z" fill="white"/>
</g>
<g clip-path="url(#clip30_100_9)">
<path d="M99.0317 331.77V344.775H91.213V334.371H78.1816V357.781H91.213V352.579H99.0317V360.382H96.4254V362.984H93.8192V365.585H75.5753V362.984H72.969V360.382H70.3628V331.77H72.969V329.169H75.5753V326.567H93.8192V329.169H96.4254V331.77H99.0317Z" fill="white"/>
<path d="M131.48 334.371H121.055V365.585H113.236V334.371H102.811V326.567H131.48V334.371Z" fill="white"/>
<path d="M165.361 336.972V349.978H162.755V352.579H160.149V355.18H157.542V357.781H160.149V360.382H162.755V362.984H165.361V365.585H154.936V362.984H152.33V360.382H144.511V365.585H136.692V326.567H154.936V329.169H157.542V331.77H160.149V334.371H162.755V336.972H165.361ZM157.542 347.377V339.573H154.936V336.972H152.33V334.371H144.511V352.579H152.33V349.978H154.936V347.377H157.542Z" fill="white"/>
<path d="M195.782 365.585H177.538V362.984H174.931V360.382H172.325V326.567H180.144V357.781H195.782V365.585Z" fill="white"/>
</g>
<g clip-path="url(#clip31_100_9)">
<path d="M717.061 331.77V344.775H709.242V334.371H696.211V357.781H709.242V352.579H717.061V360.382H714.455V362.984H711.848V365.585H693.605V362.984H690.998V360.382H688.392V331.77H690.998V329.169H693.605V326.567H711.848V329.169H714.455V331.77H717.061Z" fill="white"/>
<path d="M749.51 334.371H739.085V365.585H731.266V334.371H720.841V326.567H749.51V334.371Z" fill="white"/>
<path d="M783.391 336.972V349.978H780.784V352.579H778.178V355.18H775.572V357.781H778.178V360.382H780.784V362.984H783.391V365.585H772.966V362.984H770.359V360.382H762.541V365.585H754.722V326.567H772.966V329.169H775.572V331.77H778.178V334.371H780.784V336.972H783.391ZM775.572 347.377V339.573H772.966V336.972H770.359V334.371H762.541V352.579H770.359V349.978H772.966V347.377H775.572Z" fill="white"/>
<path d="M813.812 365.585H795.568V362.984H792.962V360.382H790.355V326.567H798.174V357.781H813.812V365.585Z" fill="white"/>
</g>
<g clip-path="url(#clip32_100_9)">
<path d="M562.556 331.77V344.775H554.737V334.371H541.706V357.781H554.737V352.579H562.556V360.382H559.949V362.984H557.343V365.585H539.099V362.984H536.493V360.382H533.887V331.77H536.493V329.169H539.099V326.567H557.343V329.169H559.949V331.77H562.556Z" fill="white"/>
<path d="M595.003 334.371H584.578V365.585H576.76V334.371H566.334V326.567H595.003V334.371Z" fill="white"/>
<path d="M628.885 336.972V349.978H626.279V352.579H623.672V355.18H621.066V357.781H623.672V360.382H626.279V362.984H628.885V365.585H618.46V362.984H615.853V360.382H608.035V365.585H600.216V326.567H618.46V329.169H621.066V331.77H623.672V334.371H626.279V336.972H628.885ZM621.066 347.377V339.573H618.46V336.972H615.853V334.371H608.035V352.579H615.853V349.978H618.46V347.377H621.066Z" fill="white"/>
<path d="M659.306 365.585H641.062V362.984H638.455V360.382H635.849V326.567H643.668V357.781H659.306V365.585Z" fill="white"/>
</g>
<g clip-path="url(#clip33_100_9)">
<path d="M408.048 331.77V344.775H400.229V334.371H387.198V357.781H400.229V352.579H408.048V360.382H405.441V362.984H402.835V365.585H384.591V362.984H381.985V360.382H379.379V331.77H381.985V329.169H384.591V326.567H402.835V329.169H405.441V331.77H408.048Z" fill="white"/>
<path d="M440.496 334.371H430.071V365.585H422.252V334.371H411.827V326.567H440.496V334.371Z" fill="white"/>
<path d="M474.376 336.972V349.978H471.77V352.579H469.164V355.18H466.557V357.781H469.164V360.382H471.77V362.984H474.376V365.585H463.951V362.984H461.345V360.382H453.526V365.585H445.707V326.567H463.951V329.169H466.557V331.77H469.164V334.371H471.77V336.972H474.376ZM466.557 347.377V339.573H463.951V336.972H461.345V334.371H453.526V352.579H461.345V349.978H463.951V347.377H466.557Z" fill="white"/>
<path d="M504.798 365.585H486.554V362.984H483.947V360.382H481.341V326.567H489.16V357.781H504.798V365.585Z" fill="white"/>
</g>
<g clip-path="url(#clip34_100_9)">
<path d="M253.539 331.77V344.775H245.721V334.371H232.689V357.781H245.721V352.579H253.539V360.382H250.933V362.984H248.327V365.585H230.083V362.984H227.477V360.382H224.87V331.77H227.477V329.169H230.083V326.567H248.327V329.169H250.933V331.77H253.539Z" fill="white"/>
<path d="M285.987 334.371H275.562V365.585H267.743V334.371H257.318V326.567H285.987V334.371Z" fill="white"/>
<path d="M319.869 336.972V349.978H317.262V352.579H314.656V355.18H312.05V357.781H314.656V360.382H317.262V362.984H319.869V365.585H309.444V362.984H306.837V360.382H299.019V365.585H291.2V326.567H309.444V329.169H312.05V331.77H314.656V334.371H317.262V336.972H319.869ZM312.05 347.377V339.573H309.444V336.972H306.837V334.371H299.019V352.579H306.837V349.978H309.444V347.377H312.05Z" fill="white"/>
<path d="M350.289 365.585H332.045V362.984H329.439V360.382H326.833V326.567H334.651V357.781H350.289V365.585Z" fill="white"/>
</g>
<g clip-path="url(#clip35_100_9)">
<path d="M28.6684 386.175V399.181H20.8497V388.776H7.8183V412.186H20.8497V406.984H28.6684V414.787H26.0621V417.389H23.4559V419.99H5.21204V417.389H2.60577V414.787H-0.000488281V386.175H2.60577V383.574H5.21204V380.972H23.4559V383.574H26.0621V386.175H28.6684Z" fill="white"/>
<path d="M61.1164 388.776H50.6913V419.99H42.8726V388.776H32.4475V380.972H61.1164V388.776Z" fill="white"/>
<path d="M94.9975 391.377V404.383H92.3914V406.984H89.785V409.585H87.1788V412.186H89.785V414.787H92.3914V417.389H94.9975V419.99H84.5726V417.389H81.9663V414.787H74.1475V419.99H66.3286V380.972H84.5726V383.574H87.1788V386.175H89.785V388.776H92.3914V391.377H94.9975ZM87.1788 401.782V393.978H84.5726V391.377H81.9663V388.776H74.1475V406.984H81.9663V404.383H84.5726V401.782H87.1788Z" fill="white"/>
<path d="M125.418 419.99H107.174V417.389H104.568V414.787H101.962V380.972H109.78V412.186H125.418V419.99Z" fill="white"/>
</g>
<g clip-path="url(#clip36_100_9)">
<path d="M646.7 386.175V399.181H638.881V388.776H625.85V412.186H638.881V406.984H646.7V414.787H644.093V417.389H641.487V419.99H623.243V417.389H620.637V414.787H618.031V386.175H620.637V383.574H623.243V380.972H641.487V383.574H644.093V386.175H646.7Z" fill="white"/>
<path d="M679.147 388.776H668.722V419.99H660.904V388.776H650.479V380.972H679.147V388.776Z" fill="white"/>
<path d="M713.029 391.377V404.383H710.423V406.984H707.816V409.585H705.21V412.186H707.816V414.787H710.423V417.389H713.029V419.99H702.604V417.389H699.998V414.787H692.179V419.99H684.36V380.972H702.604V383.574H705.21V386.175H707.816V388.776H710.423V391.377H713.029ZM705.21 401.782V393.978H702.604V391.377H699.998V388.776H692.179V406.984H699.998V404.383H702.604V401.782H705.21Z" fill="white"/>
<path d="M743.45 419.99H725.206V417.389H722.599V414.787H719.993V380.972H727.812V412.186H743.45V419.99Z" fill="white"/>
</g>
<g clip-path="url(#clip37_100_9)">
<path d="M492.193 386.175V399.181H484.374V388.776H471.343V412.186H484.374V406.984H492.193V414.787H489.587V417.389H486.981V419.99H468.737V417.389H466.13V414.787H463.524V386.175H466.13V383.574H468.737V380.972H486.981V383.574H489.587V386.175H492.193Z" fill="white"/>
<path d="M524.64 388.776H514.215V419.99H506.396V388.776H495.971V380.972H524.64V388.776Z" fill="white"/>
<path d="M558.522 391.377V404.383H555.916V406.984H553.31V409.585H550.704V412.186H553.31V414.787H555.916V417.389H558.522V419.99H548.098V417.389H545.491V414.787H537.672V419.99H529.854V380.972H548.098V383.574H550.704V386.175H553.31V388.776H555.916V391.377H558.522ZM550.704 401.782V393.978H548.098V391.377H545.491V388.776H537.672V406.984H545.491V404.383H548.098V401.782H550.704Z" fill="white"/>
<path d="M588.943 419.99H570.699V417.389H568.092V414.787H565.486V380.972H573.305V412.186H588.943V419.99Z" fill="white"/>
</g>
<g clip-path="url(#clip38_100_9)">
<path d="M337.684 386.175V399.181H329.866V388.776H316.834V412.186H329.866V406.984H337.684V414.787H335.078V417.389H332.472V419.99H314.228V417.389H311.622V414.787H309.015V386.175H311.622V383.574H314.228V380.972H332.472V383.574H335.078V386.175H337.684Z" fill="white"/>
<path d="M370.131 388.776H359.706V419.99H351.888V388.776H341.462V380.972H370.131V388.776Z" fill="white"/>
<path d="M404.014 391.377V404.383H401.407V406.984H398.801V409.585H396.195V412.186H398.801V414.787H401.407V417.389H404.014V419.99H393.589V417.389H390.982V414.787H383.164V419.99H375.345V380.972H393.589V383.574H396.195V386.175H398.801V388.776H401.407V391.377H404.014ZM396.195 401.782V393.978H393.589V391.377H390.982V388.776H383.164V406.984H390.982V404.383H393.589V401.782H396.195Z" fill="white"/>
<path d="M434.434 419.99H416.19V417.389H413.584V414.787H410.978V380.972H418.797V412.186H434.434V419.99Z" fill="white"/>
</g>
<g clip-path="url(#clip39_100_9)">
<path d="M183.177 386.175V399.181H175.358V388.776H162.327V412.186H175.358V406.984H183.177V414.787H180.571V417.389H177.964V419.99H159.721V417.389H157.114V414.787H154.508V386.175H157.114V383.574H159.721V380.972H177.964V383.574H180.571V386.175H183.177Z" fill="white"/>
<path d="M215.625 388.776H205.2V419.99H197.381V388.776H186.956V380.972H215.625V388.776Z" fill="white"/>
<path d="M249.505 391.377V404.383H246.899V406.984H244.293V409.585H241.687V412.186H244.293V414.787H246.899V417.389H249.505V419.99H239.08V417.389H236.474V414.787H228.655V419.99H220.836V380.972H239.08V383.574H241.687V386.175H244.293V388.776H246.899V391.377H249.505ZM241.687 401.782V393.978H239.08V391.377H236.474V388.776H228.655V406.984H236.474V404.383H239.08V401.782H241.687Z" fill="white"/>
<path d="M279.927 419.99H261.683V417.389H259.077V414.787H256.47V380.972H264.289V412.186H279.927V419.99Z" fill="white"/>
</g>
<defs>
<clipPath id="clip0_100_9">
<rect width="125.492" height="39.171" fill="white" transform="translate(70.3625)"/>
</clipPath>
<clipPath id="clip1_100_9">
<rect width="125.492" height="39.171" fill="white" transform="translate(688.394)"/>
</clipPath>
<clipPath id="clip2_100_9">
<rect width="125.492" height="39.171" fill="white" transform="translate(533.887)"/>
</clipPath>
<clipPath id="clip3_100_9">
<rect width="125.492" height="39.171" fill="white" transform="translate(379.378)"/>
</clipPath>
<clipPath id="clip4_100_9">
<rect width="125.492" height="39.171" fill="white" transform="translate(224.871)"/>
</clipPath>
<clipPath id="clip5_100_9">
<rect width="125.492" height="39.171" fill="white" transform="translate(0 54.405)"/>
</clipPath>
<clipPath id="clip6_100_9">
<rect width="125.492" height="39.171" fill="white" transform="translate(618.031 54.405)"/>
</clipPath>
<clipPath id="clip7_100_9">
<rect width="125.492" height="39.171" fill="white" transform="translate(463.524 54.405)"/>
</clipPath>
<clipPath id="clip8_100_9">
<rect width="125.492" height="39.171" fill="white" transform="translate(309.016 54.405)"/>
</clipPath>
<clipPath id="clip9_100_9">
<rect width="125.492" height="39.171" fill="white" transform="translate(154.508 54.405)"/>
</clipPath>
<clipPath id="clip10_100_9">
<rect width="125.492" height="39.171" fill="white" transform="translate(70.3625 108.808)"/>
</clipPath>
<clipPath id="clip11_100_9">
<rect width="125.492" height="39.171" fill="white" transform="translate(688.394 108.808)"/>
</clipPath>
<clipPath id="clip12_100_9">
<rect width="125.492" height="39.171" fill="white" transform="translate(533.887 108.808)"/>
</clipPath>
<clipPath id="clip13_100_9">
<rect width="125.492" height="39.171" fill="white" transform="translate(379.378 108.808)"/>
</clipPath>
<clipPath id="clip14_100_9">
<rect width="125.492" height="39.171" fill="white" transform="translate(224.871 108.808)"/>
</clipPath>
<clipPath id="clip15_100_9">
<rect width="125.492" height="39.171" fill="white" transform="translate(0 163.213)"/>
</clipPath>
<clipPath id="clip16_100_9">
<rect width="125.492" height="39.171" fill="white" transform="translate(618.031 163.213)"/>
</clipPath>
<clipPath id="clip17_100_9">
<rect width="125.492" height="39.171" fill="white" transform="translate(463.524 163.213)"/>
</clipPath>
<clipPath id="clip18_100_9">
<rect width="125.492" height="39.171" fill="white" transform="translate(309.016 163.213)"/>
</clipPath>
<clipPath id="clip19_100_9">
<rect width="125.492" height="39.171" fill="white" transform="translate(154.508 163.213)"/>
</clipPath>
<clipPath id="clip20_100_9">
<rect width="125.492" height="39.171" fill="white" transform="translate(70.3625 217.617)"/>
</clipPath>
<clipPath id="clip21_100_9">
<rect width="125.492" height="39.171" fill="white" transform="translate(688.394 217.617)"/>
</clipPath>
<clipPath id="clip22_100_9">
<rect width="125.492" height="39.171" fill="white" transform="translate(533.887 217.617)"/>
</clipPath>
<clipPath id="clip23_100_9">
<rect width="125.492" height="39.171" fill="white" transform="translate(379.378 217.617)"/>
</clipPath>
<clipPath id="clip24_100_9">
<rect width="125.492" height="39.171" fill="white" transform="translate(224.871 217.617)"/>
</clipPath>
<clipPath id="clip25_100_9">
<rect width="125.492" height="39.171" fill="white" transform="translate(0 272.021)"/>
</clipPath>
<clipPath id="clip26_100_9">
<rect width="125.492" height="39.171" fill="white" transform="translate(618.031 272.021)"/>
</clipPath>
<clipPath id="clip27_100_9">
<rect width="125.492" height="39.171" fill="white" transform="translate(463.524 272.021)"/>
</clipPath>
<clipPath id="clip28_100_9">
<rect width="125.492" height="39.171" fill="white" transform="translate(309.016 272.021)"/>
</clipPath>
<clipPath id="clip29_100_9">
<rect width="125.492" height="39.171" fill="white" transform="translate(154.508 272.021)"/>
</clipPath>
<clipPath id="clip30_100_9">
<rect width="125.492" height="39.171" fill="white" transform="translate(70.3625 326.425)"/>
</clipPath>
<clipPath id="clip31_100_9">
<rect width="125.492" height="39.171" fill="white" transform="translate(688.394 326.425)"/>
</clipPath>
<clipPath id="clip32_100_9">
<rect width="125.492" height="39.171" fill="white" transform="translate(533.887 326.425)"/>
</clipPath>
<clipPath id="clip33_100_9">
<rect width="125.492" height="39.171" fill="white" transform="translate(379.378 326.425)"/>
</clipPath>
<clipPath id="clip34_100_9">
<rect width="125.492" height="39.171" fill="white" transform="translate(224.871 326.425)"/>
</clipPath>
<clipPath id="clip35_100_9">
<rect width="125.492" height="39.171" fill="white" transform="translate(0 380.829)"/>
</clipPath>
<clipPath id="clip36_100_9">
<rect width="125.492" height="39.171" fill="white" transform="translate(618.031 380.829)"/>
</clipPath>
<clipPath id="clip37_100_9">
<rect width="125.492" height="39.171" fill="white" transform="translate(463.524 380.829)"/>
</clipPath>
<clipPath id="clip38_100_9">
<rect width="125.492" height="39.171" fill="white" transform="translate(309.016 380.829)"/>
</clipPath>
<clipPath id="clip39_100_9">
<rect width="125.492" height="39.171" fill="white" transform="translate(154.508 380.829)"/>
</clipPath>
</defs>
</svg>
